<svg width="24" height="25" viewBox="0 0 24 25" fill="none" xmlns="http://www.w3.org/2000/svg">
<g clip-path="url(#clip0_3259_4054)">
<path fill-rule="evenodd" clip-rule="evenodd" d="M20.7839 3.7201C20.8538 3.78977 20.9092 3.87253 20.947 3.96365C20.9848 4.05476 21.0043 4.15245 21.0043 4.2511C21.0043 4.34975 20.9848 4.44743 20.947 4.53855C20.9092 4.62966 20.8538 4.71243 20.7839 4.7821L4.28393 21.2821C4.1431 21.4229 3.95209 21.502 3.75293 21.502C3.55376 21.502 3.36276 21.4229 3.22193 21.2821C3.0811 21.1413 3.00198 20.9503 3.00198 20.7511C3.00198 20.5519 3.0811 20.3609 3.22193 20.2201L19.7219 3.7201C19.7916 3.65025 19.8744 3.59484 19.9655 3.55703C20.0566 3.51922 20.1543 3.49976 20.2529 3.49976C20.3516 3.49976 20.4493 3.51922 20.5404 3.55703C20.6315 3.59484 20.7143 3.65025 20.7839 3.7201Z" fill="#525252"/>
<path fill-rule="evenodd" clip-rule="evenodd" d="M3.22193 3.7201C3.15208 3.78977 3.09667 3.87253 3.05886 3.96365C3.02105 4.05476 3.00159 4.15245 3.00159 4.2511C3.00159 4.34975 3.02105 4.44743 3.05886 4.53855C3.09667 4.62966 3.15208 4.71243 3.22193 4.7821L19.7219 21.2821C19.8628 21.4229 20.0538 21.502 20.2529 21.502C20.4521 21.502 20.6431 21.4229 20.7839 21.2821C20.9248 21.1413 21.0039 20.9503 21.0039 20.7511C21.0039 20.5519 20.9248 20.3609 20.7839 20.2201L4.28393 3.7201C4.21426 3.65025 4.1315 3.59484 4.04038 3.55703C3.94926 3.51922 3.85158 3.49976 3.75293 3.49976C3.65428 3.49976 3.55659 3.51922 3.46548 3.55703C3.37436 3.59484 3.2916 3.65025 3.22193 3.7201Z" fill="#525252"/>
</g>
<defs>
<clipPath id="clip0_3259_4054">
<rect width="24" height="24" fill="white" transform="translate(0 0.5)"/>
</clipPath>
</defs>
</svg>
