<svg width="30" height="30" viewBox="0 0 30 30" fill="none" xmlns="http://www.w3.org/2000/svg">
<path d="M0.628449 0.630402C0.827465 0.430883 1.06389 0.272585 1.32417 0.164578C1.58446 0.0565706 1.8635 0.000976562 2.14531 0.000976562C2.42712 0.000976562 2.70615 0.0565706 2.96644 0.164578C3.22673 0.272585 3.46315 0.430883 3.66217 0.630402L15 11.9726L26.3379 0.630402C26.5371 0.431206 26.7736 0.273194 27.0339 0.165389C27.2941 0.0575847 27.5731 0.00209828 27.8548 0.00209828C28.1365 0.00209828 28.4154 0.0575847 28.6757 0.165389C28.936 0.273194 29.1724 0.431206 29.3716 0.630402C29.5708 0.829599 29.7288 1.06608 29.8367 1.32634C29.9445 1.58661 29.9999 1.86555 29.9999 2.14726C29.9999 2.42897 29.9445 2.70792 29.8367 2.96818C29.7288 3.22844 29.5708 3.46492 29.3716 3.66412L18.0295 15.002L29.3716 26.3399C29.5708 26.5391 29.7288 26.7756 29.8367 27.0358C29.9445 27.2961 29.9999 27.575 29.9999 27.8567C29.9999 28.1384 29.9445 28.4174 29.8367 28.6777C29.7288 28.9379 29.5708 29.1744 29.3716 29.3736C29.1724 29.5728 28.936 29.7308 28.6757 29.8386C28.4154 29.9464 28.1365 30.0019 27.8548 30.0019C27.5731 30.0019 27.2941 29.9464 27.0339 29.8386C26.7736 29.7308 26.5371 29.5728 26.3379 29.3736L15 18.0314L3.66217 29.3736C3.46297 29.5728 3.22649 29.7308 2.96623 29.8386C2.70596 29.9464 2.42702 30.0019 2.14531 30.0019C1.8636 30.0019 1.58465 29.9464 1.32439 29.8386C1.06413 29.7308 0.827646 29.5728 0.628449 29.3736C0.429252 29.1744 0.271241 28.9379 0.163436 28.6777C0.0556316 28.4174 0.000145157 28.1384 0.000145157 27.8567C0.000145157 27.575 0.0556316 27.2961 0.163436 27.0358C0.271241 26.7756 0.429252 26.5391 0.628449 26.3399L11.9706 15.002L0.628449 3.66412C0.42893 3.46511 0.270632 3.22868 0.162625 2.9684C0.0546175 2.70811 -0.000976562 2.42907 -0.000976562 2.14726C-0.000976562 1.86545 0.0546175 1.58642 0.162625 1.32613C0.270632 1.06584 0.42893 0.829418 0.628449 0.630402Z" fill="white"/>
</svg>
