<svg width="33" height="26" viewBox="0 0 33 26" fill="none" xmlns="http://www.w3.org/2000/svg">
<path d="M29.2079 0.912243C29.4127 0.703342 29.657 0.537386 29.9267 0.424091C30.1964 0.310797 30.4859 0.252441 30.7784 0.252441C31.0709 0.252441 31.3605 0.310797 31.6302 0.424091C31.8998 0.537386 32.1442 0.703342 32.3489 0.912243C33.2069 1.77924 33.2189 3.18024 32.3789 4.06224L14.6399 25.0322C14.4385 25.2534 14.1941 25.4312 13.9217 25.5546C13.6492 25.6781 13.3544 25.7446 13.0554 25.7503C12.7563 25.7559 12.4592 25.7004 12.1823 25.5873C11.9054 25.4741 11.6545 25.3057 11.4449 25.0922L0.650941 14.1542C0.234652 13.7297 0.00146484 13.1588 0.00146484 12.5642C0.00146484 11.9697 0.234652 11.3988 0.650941 10.9742C0.855679 10.7653 1.10004 10.5994 1.36971 10.4861C1.63938 10.3728 1.92894 10.3144 2.22144 10.3144C2.51394 10.3144 2.80351 10.3728 3.07318 10.4861C3.34285 10.5994 3.5872 10.7653 3.79194 10.9742L12.9479 20.2532L29.1479 0.978244C29.1666 0.955059 29.1866 0.933019 29.2079 0.912243Z" fill="white"/>
</svg>
