<svg width="16" height="16" viewBox="0 0 16 16" fill="none" xmlns="http://www.w3.org/2000/svg">
<path d="M3.21176 3.21054C3.2781 3.14403 3.35691 3.09127 3.44367 3.05527C3.53043 3.01926 3.62345 3.00073 3.71738 3.00073C3.81132 3.00073 3.90433 3.01926 3.99109 3.05527C4.07786 3.09127 4.15666 3.14403 4.223 3.21054L8.00229 6.99126L11.7816 3.21054C11.848 3.14414 11.9268 3.09147 12.0136 3.05554C12.1003 3.0196 12.1933 3.00111 12.2872 3.00111C12.3811 3.00111 12.4741 3.0196 12.5608 3.05554C12.6476 3.09147 12.7264 3.14414 12.7928 3.21054C12.8592 3.27694 12.9119 3.35577 12.9478 3.44252C12.9838 3.52928 13.0023 3.62226 13.0023 3.71616C13.0023 3.81006 12.9838 3.90305 12.9478 3.9898C12.9119 4.07655 12.8592 4.15538 12.7928 4.22178L9.0121 8.00107L12.7928 11.7804C12.8592 11.8468 12.9119 11.9256 12.9478 12.0123C12.9838 12.0991 13.0023 12.1921 13.0023 12.286C13.0023 12.3799 12.9838 12.4729 12.9478 12.5596C12.9119 12.6464 12.8592 12.7252 12.7928 12.7916C12.7264 12.858 12.6476 12.9107 12.5608 12.9466C12.4741 12.9825 12.3811 13.001 12.2872 13.001C12.1933 13.001 12.1003 12.9825 12.0136 12.9466C11.9268 12.9107 11.848 12.858 11.7816 12.7916L8.00229 9.01088L4.223 12.7916C4.1566 12.858 4.07778 12.9107 3.99102 12.9466C3.90427 12.9825 3.81128 13.001 3.71738 13.001C3.62348 13.001 3.5305 12.9825 3.44374 12.9466C3.35699 12.9107 3.27816 12.858 3.21176 12.7916C3.14536 12.7252 3.09269 12.6464 3.05676 12.5596C3.02082 12.4729 3.00233 12.3799 3.00233 12.286C3.00233 12.1921 3.02082 12.0991 3.05676 12.0123C3.09269 11.9256 3.14536 11.8468 3.21176 11.7804L6.99248 8.00107L3.21176 4.22178C3.14526 4.15544 3.09249 4.07663 3.05649 3.98987C3.02048 3.90311 3.00195 3.8101 3.00195 3.71616C3.00195 3.62223 3.02048 3.52921 3.05649 3.44245C3.09249 3.35569 3.14526 3.27688 3.21176 3.21054Z" fill="white"/>
</svg>
