<svg width="18" height="18" viewBox="0 0 18 18" fill="none" xmlns="http://www.w3.org/2000/svg">
<rect width="18" height="18" fill="white" fill-opacity="0.01"/>
<g clip-path="url(#clip0_1966_12242)">
<rect width="16" height="16" transform="translate(1 1)" fill="white" fill-opacity="0.01"/>
<g clip-path="url(#clip1_1966_12242)">
<path d="M14.3585 12.2373C16.0595 10.7193 16.9995 8.99926 16.9995 8.99926C16.9995 8.99926 13.9995 3.49926 8.99951 3.49926C8.0391 3.50257 7.08957 3.70269 6.20951 4.08726L6.97951 4.85826C7.62695 4.62242 8.31046 4.50094 8.99951 4.49926C11.1195 4.49926 12.8785 5.66726 14.1675 6.95626C14.7879 7.57995 15.344 8.26439 15.8275 8.99926C15.7695 9.08626 15.7055 9.18226 15.6325 9.28726C15.2975 9.76726 14.8025 10.4073 14.1675 11.0423C14.0025 11.2073 13.8305 11.3703 13.6505 11.5283L14.3585 12.2373Z" fill="#7C7C7C"/>
<path d="M12.2965 10.1753C12.5197 9.55111 12.561 8.87641 12.4157 8.22968C12.2704 7.58296 11.9444 6.99079 11.4757 6.52208C11.007 6.05338 10.4148 5.7274 9.76809 5.58209C9.12136 5.43678 8.44667 5.47811 7.82251 5.70126L8.64551 6.52426C9.02982 6.46926 9.42166 6.50451 9.78998 6.62723C10.1583 6.74995 10.493 6.95676 10.7675 7.23128C11.042 7.50579 11.2488 7.84047 11.3715 8.20879C11.4943 8.57711 11.5295 8.96895 11.4745 9.35326L12.2965 10.1753ZM9.35351 11.4743L10.1755 12.2963C9.55135 12.5194 8.87666 12.5607 8.22993 12.4154C7.5832 12.2701 6.99104 11.9442 6.52233 11.4754C6.05363 11.0067 5.72765 10.4146 5.58234 9.76784C5.43703 9.12112 5.47836 8.44642 5.70151 7.82226L6.52451 8.64526C6.4695 9.02957 6.50476 9.42141 6.62747 9.78973C6.75019 10.1581 6.95701 10.4927 7.23152 10.7673C7.50604 11.0418 7.84072 11.2486 8.20904 11.3713C8.57736 11.494 8.9692 11.5293 9.35351 11.4743Z" fill="#7C7C7C"/>
<path d="M4.34951 6.46926C4.16951 6.62926 3.99651 6.79126 3.83151 6.95626C3.21116 7.57995 2.65503 8.26439 2.17151 8.99926L2.36651 9.28726C2.70151 9.76726 3.19651 10.4073 3.83151 11.0423C5.12051 12.3313 6.88051 13.4993 8.99951 13.4993C9.71551 13.4993 10.3895 13.3663 11.0195 13.1393L11.7895 13.9113C10.9094 14.2958 9.95992 14.4959 8.99951 14.4993C3.99951 14.4993 0.999512 8.99926 0.999512 8.99926C0.999512 8.99926 1.93851 7.27826 3.64051 5.76126L4.34851 6.47026L4.34951 6.46926ZM14.6455 15.3533L2.64551 3.35326L3.35351 2.64526L15.3535 14.6453L14.6455 15.3533Z" fill="#7C7C7C"/>
</g>
</g>
<defs>
<clipPath id="clip0_1966_12242">
<rect width="16" height="16" fill="white" transform="translate(1 1)"/>
</clipPath>
<clipPath id="clip1_1966_12242">
<rect width="16" height="16" fill="white" transform="translate(1 1)"/>
</clipPath>
</defs>
</svg>
