<svg width="18" height="18" viewBox="0 0 18 18" fill="none" xmlns="http://www.w3.org/2000/svg">
<rect width="18" height="18" fill="white" fill-opacity="0.01"/>
<g clip-path="url(#clip0_1966_12225)">
<rect width="16" height="16" transform="translate(1 1)" fill="white" fill-opacity="0.01"/>
<g clip-path="url(#clip1_1966_12225)">
<path d="M0.999512 8.99912C0.999169 8.11829 1.28957 7.26199 1.82566 6.56308C2.36175 5.86418 3.11353 5.36177 3.96435 5.13383C4.81517 4.90588 5.71744 4.96514 6.53113 5.30241C7.34483 5.63968 8.02444 6.2361 8.46451 6.99912H14.9995C15.0652 6.999 15.1303 7.01183 15.191 7.03689C15.2518 7.06194 15.307 7.09872 15.3535 7.14512L16.8535 8.64512C16.9001 8.69156 16.937 8.74674 16.9622 8.80748C16.9874 8.86823 17.0004 8.93335 17.0004 8.99912C17.0004 9.06488 16.9874 9.13001 16.9622 9.19075C16.937 9.2515 16.9001 9.30667 16.8535 9.35312L15.3535 10.8531C15.3071 10.8997 15.2519 10.9366 15.1911 10.9618C15.1304 10.987 15.0653 11 14.9995 11C14.9337 11 14.8686 10.987 14.8079 10.9618C14.7471 10.9366 14.692 10.8997 14.6455 10.8531L13.9995 10.2061L13.3535 10.8531C13.3071 10.8997 13.2519 10.9366 13.1911 10.9618C13.1304 10.987 13.0653 11 12.9995 11C12.9337 11 12.8686 10.987 12.8079 10.9618C12.7471 10.9366 12.692 10.8997 12.6455 10.8531L11.9995 10.2061L11.3535 10.8531C11.3071 10.8997 11.2519 10.9366 11.1911 10.9618C11.1304 10.987 11.0653 11 10.9995 11C10.9337 11 10.8686 10.987 10.8079 10.9618C10.7471 10.9366 10.692 10.8997 10.6455 10.8531L9.99951 10.2061L9.35351 10.8531C9.30699 10.8995 9.25178 10.9363 9.19104 10.9613C9.1303 10.9864 9.06522 10.9992 8.99951 10.9991H8.46451C8.02444 11.7621 7.34483 12.3586 6.53113 12.6958C5.71744 13.0331 4.81517 13.0924 3.96435 12.8644C3.11353 12.6365 2.36175 12.1341 1.82566 11.4352C1.28957 10.7362 0.999169 9.87994 0.999512 8.99912ZM4.99951 5.99912C4.46265 5.99932 3.93568 6.14358 3.47358 6.41686C3.01148 6.69013 2.63117 7.0824 2.37234 7.55275C2.11351 8.02309 1.98563 8.55428 2.00205 9.09088C2.01848 9.62749 2.17859 10.1499 2.4657 10.6035C2.75281 11.0571 3.15639 11.4254 3.63434 11.6699C4.11229 11.9144 4.64709 12.0262 5.18296 11.9936C5.71883 11.9609 6.23612 11.7851 6.68088 11.4844C7.12564 11.1838 7.48156 10.7692 7.71151 10.2841C7.75211 10.1989 7.81601 10.1269 7.89582 10.0764C7.97564 10.026 8.0681 9.9992 8.16251 9.99912H8.79251L9.64551 9.14512C9.69196 9.09855 9.74713 9.06161 9.80788 9.03641C9.86862 9.0112 9.93374 8.99822 9.99951 8.99822C10.0653 8.99822 10.1304 9.0112 10.1911 9.03641C10.2519 9.06161 10.3071 9.09855 10.3535 9.14512L10.9995 9.79212L11.6455 9.14512C11.692 9.09855 11.7471 9.06161 11.8079 9.03641C11.8686 9.0112 11.9337 8.99822 11.9995 8.99822C12.0653 8.99822 12.1304 9.0112 12.1911 9.03641C12.2519 9.06161 12.3071 9.09855 12.3535 9.14512L12.9995 9.79212L13.6455 9.14512C13.692 9.09855 13.7471 9.06161 13.8079 9.03641C13.8686 9.0112 13.9337 8.99822 13.9995 8.99822C14.0653 8.99822 14.1304 9.0112 14.1911 9.03641C14.2519 9.06161 14.3071 9.09855 14.3535 9.14512L14.9995 9.79212L15.7925 8.99912L14.7925 7.99912H8.16251C8.0681 7.99904 7.97564 7.97223 7.89582 7.9218C7.81601 7.87136 7.75211 7.79936 7.71151 7.71412C7.4682 7.20083 7.08417 6.76716 6.60407 6.46356C6.12397 6.15996 5.56755 5.9989 4.99951 5.99912Z" fill="#7C7C7C"/>
<path d="M4.99951 8.99912C4.99951 9.26433 4.89416 9.51869 4.70662 9.70622C4.51908 9.89376 4.26473 9.99912 3.99951 9.99912C3.7343 9.99912 3.47994 9.89376 3.29241 9.70622C3.10487 9.51869 2.99951 9.26433 2.99951 8.99912C2.99951 8.7339 3.10487 8.47955 3.29241 8.29201C3.47994 8.10447 3.7343 7.99912 3.99951 7.99912C4.26473 7.99912 4.51908 8.10447 4.70662 8.29201C4.89416 8.47955 4.99951 8.7339 4.99951 8.99912Z" fill="#7C7C7C"/>
</g>
</g>
<defs>
<clipPath id="clip0_1966_12225">
<rect width="16" height="16" fill="white" transform="translate(1 1)"/>
</clipPath>
<clipPath id="clip1_1966_12225">
<rect width="16" height="16" fill="white" transform="translate(1 1)"/>
</clipPath>
</defs>
</svg>
