<svg width="24" height="24" viewBox="0 0 24 24" fill="none" xmlns="http://www.w3.org/2000/svg">
<g clip-path="url(#clip0_1767_8091)">
<path d="M3.7172 6.76314H8.75799L7.96207 13.2631C7.82942 13.5284 7.69677 13.5284 7.56412 13.5284H2.12537C2.12537 13.1305 2.25802 12.8651 2.25802 12.4672H5.17637V11.5386H0.00292969V12.5998H1.1968C1.06415 13.2631 1.06415 13.9264 0.931497 14.5896H4.77842C5.44168 14.5896 5.83964 14.9876 5.70698 15.6508C4.74367 15.7063 3.83975 16.1345 3.18659 16.8447L3.84985 17.508C4.29228 17.1101 4.83362 16.8385 5.4171 16.7218C6.00059 16.6051 6.60472 16.6476 7.16616 16.8447C8.49268 17.2427 8.89064 18.3039 9.42125 19.4978L10.3498 19.0998C10.1543 18.2961 9.74152 17.5616 9.15662 16.9767C8.57172 16.3918 7.83724 15.979 7.03351 15.7835L6.7682 15.5182C6.77949 15.2032 6.73457 14.8888 6.63555 14.5896C8.37808 14.4369 10.1337 14.617 11.809 15.1202C11.5437 16.4468 11.2784 17.7733 10.8804 19.2325H11.9416L13.1355 14.059H12.7376L10.0845 13.5284C9.2886 13.3958 9.02329 12.9978 9.15595 12.2019C9.09991 11.6571 9.19155 11.1072 9.42125 10.6101C9.96185 9.58952 10.5829 8.61365 11.2784 7.6917C11.3778 7.41843 11.5642 7.1854 11.809 7.02844C12.6154 7.5279 13.3708 8.10551 14.0641 8.75292C14.5539 9.25279 15.2214 9.53887 15.9212 9.54884H16.7171L18.7069 9.81414C18.5653 10.0332 18.3675 10.2102 18.1342 10.3269C17.9009 10.4435 17.6406 10.4955 17.3804 10.4774H15.1253L14.462 10.2121L12.7376 9.15088C12.3056 10.193 11.8185 11.2115 11.2784 12.2019L13.9314 13.5284C14.3294 13.7937 14.462 13.9264 14.3294 14.3243C14.2319 14.9206 14.0534 15.5008 13.7988 16.0488L13.0029 19.0998L14.0641 19.4978C14.0641 18.8345 14.462 18.7019 14.86 18.5692H15.1253C15.965 18.1963 16.6902 17.6065 17.2264 16.8605C17.7626 16.1144 18.0905 15.2391 18.1763 14.3243C18.3085 13.6676 18.3085 12.9912 18.1763 12.3345H17.1151C17.3822 13.3647 17.2396 14.4584 16.7171 15.3855C16.532 15.8842 16.2488 16.3407 15.8843 16.728C15.5197 17.1153 15.0812 17.4257 14.5947 17.6406V17.11L15.3906 14.457C15.4635 14.1556 15.4385 13.8388 15.3193 13.5526C15.2 13.2664 14.9927 13.0256 14.7273 12.8651C14.6656 12.7828 14.5855 12.7159 14.4934 12.6699C14.4013 12.6238 14.2997 12.5998 14.1967 12.5998L12.6049 11.8039C12.7958 11.4322 13.0176 11.0772 13.2682 10.7427L14.1967 11.2733L14.5947 11.5386H17.6457C17.9753 11.5491 18.3027 11.4827 18.6022 11.3446C18.9016 11.2066 19.1647 11.0006 19.3707 10.7431C19.5767 10.4857 19.7199 10.1837 19.7888 9.8613C19.8578 9.53887 19.8507 9.20479 19.7681 8.88557H19.3702L15.6559 8.35496L14.9927 8.08966L12.0743 5.83457L11.6763 5.56926L9.68655 7.82436C9.81921 7.16109 9.81921 6.49783 9.95186 5.83457H2.12537V7.29375H3.05393C3.05393 6.76314 3.05393 6.76314 3.7172 6.76314Z" fill="#FF6B00"/>
<path d="M22.2885 18.7019H22.5538C22.3858 18.2382 22.103 17.8246 21.7318 17.4999C21.3607 17.1751 20.9133 16.9497 20.4314 16.8447C20.6646 15.9743 20.7142 15.065 20.5772 14.1743C20.4402 13.2837 20.1195 12.4313 19.6355 11.6713L18.8396 12.2019H18.9722C19.6131 13.5194 19.7997 15.012 19.5028 16.4468C19.3702 16.5794 19.3702 16.7121 19.1049 16.8447C18.3856 16.9836 17.7326 17.3568 17.2477 17.9059L18.0437 18.5692C18.3837 18.1428 18.8667 17.8541 19.4033 17.7566C19.9399 17.659 20.4936 17.7592 20.962 18.0386H20.5641L16.7171 20.0284H2.65598C2.68704 19.8049 2.73133 19.5834 2.78863 19.3651C2.78863 19.0998 2.92128 18.9672 3.18659 19.0998H4.11515V18.3039H0.00292969V19.3651H1.72741C1.59476 20.0284 1.59476 20.6916 1.46211 21.3549H2.65598C2.77859 22.082 3.14982 22.7441 3.70626 23.2279C4.26271 23.7118 4.96987 23.9875 5.70698 24.0079C7.16616 24.0079 8.22738 23.212 8.89064 21.3549H16.9824L22.2885 18.7019ZM5.83964 22.9467C5.35765 22.962 4.88483 22.8126 4.49905 22.5233C4.11327 22.234 3.83751 21.8219 3.7172 21.3549H7.69677C7.60864 21.7891 7.37809 22.1815 7.04168 22.4699C6.70527 22.7582 6.28223 22.926 5.83964 22.9467Z" fill="#FF6B00"/>
<path d="M14.3294 5.70192C14.6306 5.72141 14.9325 5.67644 15.2149 5.57001C15.4974 5.46357 15.7538 5.29812 15.9673 5.0847C16.1807 4.87128 16.3461 4.61479 16.4526 4.33235C16.559 4.04991 16.604 3.74802 16.5845 3.44683C16.5854 2.83588 16.3521 2.24782 15.9327 1.80366C15.5132 1.35949 14.9394 1.09302 14.3294 1.05908C14.0158 1.05908 13.7053 1.12084 13.4156 1.24084C13.1259 1.36083 12.8627 1.53671 12.641 1.75844C12.4193 1.98016 12.2434 2.24338 12.1234 2.53308C12.0034 2.82277 11.9416 3.13326 11.9416 3.44683C11.9411 3.75447 12.0035 4.05897 12.1251 4.34159C12.2466 4.62421 12.4247 4.87898 12.6483 5.09021C12.872 5.30145 13.1365 5.46469 13.4256 5.56988C13.7147 5.67508 14.0223 5.72001 14.3294 5.70192ZM14.3294 2.1203C14.6812 2.1203 15.0186 2.26006 15.2674 2.50883C15.5162 2.7576 15.6559 3.09501 15.6559 3.44683C15.657 3.61542 15.6223 3.78233 15.5542 3.93655C15.486 4.09078 15.386 4.22883 15.2607 4.34162C15.1354 4.45441 14.9876 4.53937 14.8271 4.59092C14.6666 4.64247 14.4969 4.65943 14.3294 4.6407C14.1618 4.65943 13.9922 4.64247 13.8317 4.59092C13.6712 4.53937 13.5234 4.45441 13.3981 4.34162C13.2727 4.22883 13.1727 4.09078 13.1046 3.93655C13.0365 3.78233 13.0018 3.61542 13.0029 3.44683C12.9815 3.26749 13.0012 3.08565 13.0603 2.91499C13.1194 2.74434 13.2165 2.58933 13.3442 2.46162C13.4719 2.33392 13.6269 2.23685 13.7976 2.17773C13.9682 2.1186 14.1501 2.09897 14.3294 2.1203Z" fill="#FF6B00"/>
<path d="M22.5538 19.3651L21.6253 19.8957C22.0232 21.2222 21.7579 22.1508 20.6967 22.6814C19.6355 23.212 18.8396 22.9467 17.7784 21.7529L16.8498 22.1508C17.1062 22.6539 17.4822 23.0863 17.9448 23.4101C18.4074 23.7339 18.9424 23.9392 19.5028 24.0079C20.1062 24.033 20.7056 23.8991 21.2411 23.6197C21.7765 23.3404 22.2292 22.9253 22.5538 22.4161C22.8093 21.9482 22.9431 21.4237 22.9431 20.8906C22.9431 20.3575 22.8093 19.833 22.5538 19.3651Z" fill="#FF6B00"/>
<path d="M1.59476 9.41618C1.62517 9.73186 1.57969 10.0502 1.46211 10.3448H2.52333C2.55903 10.1659 2.6033 9.98879 2.65598 9.81414C2.65598 9.7086 2.69791 9.60737 2.77254 9.53274C2.84717 9.45811 2.94839 9.41618 3.05393 9.41618H6.23759V8.35496H0.00292969V9.41618H1.59476Z" fill="#FF6B00"/>
</g>
<defs>
<clipPath id="clip0_1767_8091">
<rect width="24" height="24" fill="white"/>
</clipPath>
</defs>
</svg>
