<svg width="18" height="18" viewBox="0 0 18 18" fill="none" xmlns="http://www.w3.org/2000/svg">
<rect width="18" height="18" fill="white" fill-opacity="0.01"/>
<g clip-path="url(#clip0_1966_11489)">
<rect width="16" height="16" transform="translate(1 1)" fill="white" fill-opacity="0.01"/>
<path d="M8.99951 8.99927C9.79516 8.99927 10.5582 8.6832 11.1208 8.12059C11.6834 7.55798 11.9995 6.79492 11.9995 5.99927C11.9995 5.20362 11.6834 4.44056 11.1208 3.87795C10.5582 3.31534 9.79516 2.99927 8.99951 2.99927C8.20386 2.99927 7.4408 3.31534 6.87819 3.87795C6.31558 4.44056 5.99951 5.20362 5.99951 5.99927C5.99951 6.79492 6.31558 7.55798 6.87819 8.12059C7.4408 8.6832 8.20386 8.99927 8.99951 8.99927ZM10.9995 5.99927C10.9995 6.5297 10.7888 7.03841 10.4137 7.41348C10.0387 7.78855 9.52994 7.99927 8.99951 7.99927C8.46908 7.99927 7.96037 7.78855 7.5853 7.41348C7.21023 7.03841 6.99951 6.5297 6.99951 5.99927C6.99951 5.46883 7.21023 4.96013 7.5853 4.58505C7.96037 4.20998 8.46908 3.99927 8.99951 3.99927C9.52994 3.99927 10.0387 4.20998 10.4137 4.58505C10.7888 4.96013 10.9995 5.46883 10.9995 5.99927ZM14.9995 13.9993C14.9995 14.9993 13.9995 14.9993 13.9995 14.9993H3.99951C3.99951 14.9993 2.99951 14.9993 2.99951 13.9993C2.99951 12.9993 3.99951 9.99927 8.99951 9.99927C13.9995 9.99927 14.9995 12.9993 14.9995 13.9993ZM13.9995 13.9953C13.9985 13.7493 13.8455 13.0093 13.1675 12.3313C12.5155 11.6793 11.2885 10.9993 8.99951 10.9993C6.70951 10.9993 5.48351 11.6793 4.83151 12.3313C4.15351 13.0093 4.00151 13.7493 3.99951 13.9953H13.9995Z" fill="#7C7C7C"/>
</g>
<defs>
<clipPath id="clip0_1966_11489">
<rect width="16" height="16" fill="white" transform="translate(1 1)"/>
</clipPath>
</defs>
</svg>
