<svg width="23" height="22" viewBox="0 0 23 22" fill="none" xmlns="http://www.w3.org/2000/svg">
<g clip-path="url(#clip0_3587_12560)">
<path fill-rule="evenodd" clip-rule="evenodd" d="M11.5586 2.66699C11.7354 2.66699 11.905 2.73723 12.03 2.86225C12.155 2.98728 12.2253 3.15685 12.2253 3.33366V10.0003H18.8919C19.0687 10.0003 19.2383 10.0706 19.3633 10.1956C19.4884 10.3206 19.5586 10.4902 19.5586 10.667C19.5586 10.8438 19.4884 11.0134 19.3633 11.1384C19.2383 11.2634 19.0687 11.3337 18.8919 11.3337H12.2253V18.0003C12.2253 18.1771 12.155 18.3467 12.03 18.4717C11.905 18.5968 11.7354 18.667 11.5586 18.667C11.3818 18.667 11.2122 18.5968 11.0872 18.4717C10.9622 18.3467 10.8919 18.1771 10.8919 18.0003V11.3337H4.22526C4.04845 11.3337 3.87888 11.2634 3.75386 11.1384C3.62883 11.0134 3.55859 10.8438 3.55859 10.667C3.55859 10.4902 3.62883 10.3206 3.75386 10.1956C3.87888 10.0706 4.04845 10.0003 4.22526 10.0003H10.8919V3.33366C10.8919 3.15685 10.9622 2.98728 11.0872 2.86225C11.2122 2.73723 11.3818 2.66699 11.5586 2.66699V2.66699Z" fill="#525252"/>
</g>
<defs>
<clipPath id="clip0_3587_12560">
<rect width="21.3333" height="21.3333" fill="white" transform="translate(0.888916 0.000488281)"/>
</clipPath>
</defs>
</svg>
