<svg width="24" height="24" viewBox="0 0 24 24" fill="none" xmlns="http://www.w3.org/2000/svg">
<g clip-path="url(#clip0_1716_1049)">
<path d="M17.6163 15.5171C19.0687 13.5352 19.7193 11.0779 19.4378 8.63685C19.1562 6.19584 17.9634 3.95114 16.0979 2.35182C14.2325 0.752509 11.8319 -0.0834673 9.37655 0.0111424C6.92118 0.105752 4.59208 1.12397 2.8552 2.86209C1.11833 4.60021 0.101776 6.93004 0.00892292 9.38548C-0.0839298 11.8409 0.753764 14.2409 2.35441 16.1052C3.95506 17.9695 6.20062 19.1607 8.64183 19.4405C11.083 19.7203 13.5399 19.068 15.5208 17.6141H15.5193C15.5643 17.6741 15.6123 17.7311 15.6663 17.7866L21.4413 23.5616C21.7226 23.8431 22.1041 24.0013 22.502 24.0014C22.8999 24.0016 23.2816 23.8436 23.563 23.5624C23.8445 23.2811 24.0027 22.8996 24.0029 22.5017C24.003 22.1038 23.8451 21.7221 23.5638 21.4406L17.7888 15.6656C17.7352 15.6113 17.6775 15.5612 17.6163 15.5156V15.5171ZM18.0033 9.75113C18.0033 10.8345 17.7899 11.9073 17.3753 12.9083C16.9607 13.9092 16.353 14.8187 15.5869 15.5848C14.8208 16.3508 13.9114 16.9585 12.9104 17.3731C11.9095 17.7877 10.8367 18.0011 9.7533 18.0011C8.66989 18.0011 7.5971 17.7877 6.59616 17.3731C5.59523 16.9585 4.68575 16.3508 3.91967 15.5848C3.15359 14.8187 2.5459 13.9092 2.13129 12.9083C1.71669 11.9073 1.5033 10.8345 1.5033 9.75113C1.5033 7.56309 2.37249 5.46467 3.91967 3.9175C5.46684 2.37032 7.56526 1.50113 9.7533 1.50113C11.9413 1.50113 14.0398 2.37032 15.5869 3.9175C17.1341 5.46467 18.0033 7.56309 18.0033 9.75113Z" fill="#212529"/>
</g>
<defs>
<clipPath id="clip0_1716_1049">
<rect width="24" height="24" fill="white"/>
</clipPath>
</defs>
</svg>
