<svg width="32" height="32" viewBox="0 0 32 32" fill="none" xmlns="http://www.w3.org/2000/svg">
<g clip-path="url(#clip0_3125_3645)">
<path d="M4.95626 9.01703H11.6773L10.6161 17.6836C10.4392 18.0374 10.2624 18.0374 10.0855 18.0374H2.83382C2.83382 17.5068 3.01069 17.153 3.01069 16.6224H6.90183V15.3843H0.00390625V16.7993H1.59574C1.41887 17.6836 1.41887 18.568 1.242 19.4523H6.37122C7.25557 19.4523 7.78618 19.983 7.60931 20.8673C6.32489 20.9413 5.11967 21.5122 4.24878 22.4591L5.13313 23.3435C5.72304 22.8129 6.44482 22.4509 7.2228 22.2953C8.00078 22.1397 8.8063 22.1963 9.55488 22.4591C11.3236 22.9897 11.8542 24.4047 12.5617 25.9965L13.7998 25.4659C13.5391 24.3943 12.9887 23.415 12.2088 22.6351C11.429 21.8552 10.4497 21.3049 9.37801 21.0442L9.02427 20.6904C9.03932 20.2705 8.97942 19.8513 8.8474 19.4523C11.1708 19.2487 13.5117 19.4888 15.7453 20.1598C15.3916 21.9285 15.0378 23.6972 14.5072 25.6428H15.9222L17.514 18.7449H16.9834L13.446 18.0374C12.3848 17.8605 12.0311 17.3299 12.2079 16.2687C12.1332 15.5423 12.2554 14.8092 12.5617 14.1463C13.2825 12.7855 14.1105 11.4844 15.0378 10.2551C15.1704 9.89076 15.4189 9.58004 15.7453 9.37077C16.8206 10.0367 17.8277 10.8069 18.7521 11.6701C19.4052 12.3366 20.2952 12.718 21.2283 12.7313H22.2895L24.9426 13.085C24.7537 13.3771 24.49 13.6131 24.1789 13.7687C23.8679 13.9242 23.5208 13.9935 23.1739 13.9694H20.1671L19.2827 13.6156L16.9834 12.2007C16.4074 13.5902 15.758 14.9481 15.0378 16.2687L18.5752 18.0374C19.1059 18.3911 19.2827 18.568 19.1059 19.0986C18.9759 19.8937 18.7378 20.6673 18.3984 21.3979L17.3372 25.4659L18.7521 25.9965C18.7521 25.1122 19.2827 24.9353 19.8133 24.7584H20.1671C21.2866 24.2612 22.2536 23.4749 22.9685 22.4801C23.6835 21.4854 24.1206 20.3183 24.2351 19.0986C24.4114 18.223 24.4114 17.3211 24.2351 16.4456H22.8201C23.1763 17.8191 22.9861 19.2773 22.2895 20.5136C22.0427 21.1784 21.6651 21.7871 21.179 22.3035C20.693 22.82 20.1083 23.2337 19.4596 23.5204V22.8129L20.5208 19.2755C20.618 18.8736 20.5847 18.4513 20.4257 18.0696C20.2667 17.688 19.9903 17.367 19.6365 17.153C19.5541 17.0432 19.4473 16.9541 19.3245 16.8927C19.2017 16.8313 19.0663 16.7993 18.929 16.7993L16.8065 15.7381C17.061 15.2424 17.3568 14.7691 17.6909 14.3231L18.929 15.0306L19.4596 15.3843H23.5276C23.967 15.3984 24.4037 15.3098 24.8029 15.1257C25.2021 14.9416 25.553 14.667 25.8276 14.3237C26.1023 13.9804 26.2931 13.5778 26.3851 13.1479C26.4771 12.718 26.4676 12.2726 26.3575 11.8469H25.8269L20.8746 11.1395L19.9902 10.7857L16.0991 7.77894L15.5685 7.4252L12.9154 10.432C13.0923 9.54764 13.0923 8.66329 13.2691 7.77894H2.83382V9.72451H4.07191C4.07191 9.01703 4.07191 9.01703 4.95626 9.01703Z" fill="white"/>
<path d="M29.718 24.9353H30.0718C29.8477 24.3171 29.4707 23.7657 28.9758 23.3327C28.4809 22.8997 27.8844 22.5991 27.2419 22.4591C27.5528 21.2986 27.619 20.0861 27.4363 18.8986C27.2536 17.7111 26.826 16.5746 26.1806 15.5612L25.1194 16.2687H25.2963C26.1508 18.0254 26.3995 20.0156 26.0038 21.9285C25.8269 22.1054 25.8269 22.2823 25.4732 22.4591C24.5142 22.6444 23.6434 23.1419 22.997 23.8741L24.0582 24.7584C24.5116 24.1899 25.1557 23.805 25.8711 23.6749C26.5865 23.5448 27.3249 23.6784 27.9493 24.051H27.4187L22.2895 26.704H3.5413C3.58272 26.406 3.64178 26.1107 3.71817 25.8197C3.71817 25.4659 3.89504 25.2891 4.24878 25.4659H5.48687V24.4047H0.00390625V25.8197H2.30321C2.12634 26.704 2.12634 27.5884 1.94947 28.4727H3.5413C3.70479 29.4422 4.19976 30.3249 4.94169 30.9701C5.68361 31.6152 6.62649 31.9828 7.60931 32.0101C9.55488 32.0101 10.9698 30.9489 11.8542 28.4727H22.6432L29.718 24.9353ZM7.78618 30.5952C7.14353 30.6155 6.51311 30.4164 5.99873 30.0306C5.48435 29.6448 5.11668 29.0954 4.95626 28.4727H10.2624C10.1448 29.0517 9.83746 29.5749 9.38891 29.9593C8.94036 30.3438 8.37631 30.5676 7.78618 30.5952Z" fill="white"/>
<path d="M19.1059 7.60207C19.5074 7.62806 19.91 7.5681 20.2866 7.42619C20.6631 7.28428 21.0051 7.06368 21.2897 6.77911C21.5742 6.49455 21.7948 6.15256 21.9368 5.77598C22.0787 5.39939 22.1386 4.99687 22.1126 4.59528C22.1139 3.78069 21.8029 2.99661 21.2435 2.40439C20.6842 1.81217 19.9192 1.45688 19.1059 1.41162C18.6878 1.41162 18.2738 1.49397 17.8875 1.65396C17.5013 1.81396 17.1503 2.04846 16.8547 2.34409C16.559 2.63972 16.3245 2.99069 16.1645 3.37695C16.0045 3.76321 15.9222 4.1772 15.9222 4.59528C15.9215 5.00547 16.0047 5.41147 16.1668 5.7883C16.3288 6.16513 16.5662 6.50481 16.8644 6.78646C17.1627 7.06811 17.5154 7.28576 17.9008 7.42602C18.2863 7.56629 18.6964 7.6262 19.1059 7.60207ZM19.1059 2.82658C19.5749 2.82658 20.0248 3.01292 20.3565 3.34462C20.6882 3.67632 20.8746 4.12619 20.8746 4.59528C20.8759 4.82007 20.8297 5.04261 20.7389 5.24825C20.6481 5.45389 20.5147 5.63795 20.3476 5.78834C20.1805 5.93872 19.9835 6.05201 19.7695 6.12074C19.5554 6.18947 19.3293 6.21209 19.1059 6.18711C18.8824 6.21209 18.6563 6.18947 18.4422 6.12074C18.2282 6.05201 18.0312 5.93872 17.8641 5.78834C17.697 5.63795 17.5636 5.45389 17.4728 5.24825C17.382 5.04261 17.3358 4.82007 17.3372 4.59528C17.3087 4.35616 17.3349 4.11371 17.4137 3.88617C17.4925 3.65863 17.622 3.45195 17.7922 3.28167C17.9625 3.1114 18.1692 2.98198 18.3967 2.90315C18.6243 2.82432 18.8667 2.79814 19.1059 2.82658Z" fill="white"/>
<path d="M30.0718 25.8197L28.8337 26.5271C29.3643 28.2958 29.0106 29.5339 27.5956 30.2414C26.1806 30.9489 25.1194 30.5952 23.7045 29.0033L22.4664 29.5339C22.8083 30.2047 23.3096 30.7813 23.9264 31.213C24.5432 31.6448 25.2565 31.9185 26.0038 32.0101C26.8083 32.0435 27.6075 31.865 28.3214 31.4925C29.0353 31.12 29.6389 30.5666 30.0718 29.8877C30.4124 29.2638 30.5908 28.5644 30.5908 27.8537C30.5908 27.1429 30.4124 26.4435 30.0718 25.8197Z" fill="white"/>
<path d="M2.12634 12.5544C2.16689 12.9753 2.10625 13.3998 1.94947 13.7925H3.36443C3.41204 13.554 3.47107 13.3179 3.5413 13.085C3.5413 12.9443 3.59721 12.8093 3.69672 12.7098C3.79622 12.6103 3.93119 12.5544 4.07191 12.5544H8.31679V11.1395H0.00390625V12.5544H2.12634Z" fill="white"/>
</g>
<defs>
<clipPath id="clip0_3125_3645">
<rect width="32" height="32" fill="white"/>
</clipPath>
</defs>
</svg>
