<svg width="14" height="15" viewBox="0 0 14 15" fill="none" xmlns="http://www.w3.org/2000/svg">
<path d="M4.5022 5.50098C4.63481 5.50098 4.76198 5.55366 4.85575 5.64742C4.94952 5.74119 5.0022 5.86837 5.0022 6.00098V12.001C5.0022 12.1336 4.94952 12.2608 4.85575 12.3545C4.76198 12.4483 4.63481 12.501 4.5022 12.501C4.36959 12.501 4.24241 12.4483 4.14864 12.3545C4.05488 12.2608 4.0022 12.1336 4.0022 12.001V6.00098C4.0022 5.86837 4.05488 5.74119 4.14864 5.64742C4.24241 5.55366 4.36959 5.50098 4.5022 5.50098ZM7.0022 5.50098C7.13481 5.50098 7.26198 5.55366 7.35575 5.64742C7.44952 5.74119 7.5022 5.86837 7.5022 6.00098V12.001C7.5022 12.1336 7.44952 12.2608 7.35575 12.3545C7.26198 12.4483 7.13481 12.501 7.0022 12.501C6.86959 12.501 6.74241 12.4483 6.64864 12.3545C6.55488 12.2608 6.5022 12.1336 6.5022 12.001V6.00098C6.5022 5.86837 6.55488 5.74119 6.64864 5.64742C6.74241 5.55366 6.86959 5.50098 7.0022 5.50098ZM10.0022 6.00098C10.0022 5.86837 9.94952 5.74119 9.85575 5.64742C9.76198 5.55366 9.63481 5.50098 9.5022 5.50098C9.36959 5.50098 9.24241 5.55366 9.14864 5.64742C9.05488 5.74119 9.0022 5.86837 9.0022 6.00098V12.001C9.0022 12.1336 9.05488 12.2608 9.14864 12.3545C9.24241 12.4483 9.36959 12.501 9.5022 12.501C9.63481 12.501 9.76198 12.4483 9.85575 12.3545C9.94952 12.2608 10.0022 12.1336 10.0022 12.001V6.00098Z" fill="#7C7C7C"/>
<path fill-rule="evenodd" clip-rule="evenodd" d="M13.5022 3.00098C13.5022 3.26619 13.3968 3.52055 13.2093 3.70808C13.0218 3.89562 12.7674 4.00098 12.5022 4.00098H12.0022V13.001C12.0022 13.5314 11.7915 14.0401 11.4164 14.4152C11.0413 14.7903 10.5326 15.001 10.0022 15.001H4.0022C3.47176 15.001 2.96306 14.7903 2.58798 14.4152C2.21291 14.0401 2.0022 13.5314 2.0022 13.001V4.00098H1.5022C1.23698 4.00098 0.982627 3.89562 0.79509 3.70808C0.607554 3.52055 0.502197 3.26619 0.502197 3.00098V2.00098C0.502197 1.73576 0.607554 1.48141 0.79509 1.29387C0.982627 1.10633 1.23698 1.00098 1.5022 1.00098H5.0022C5.0022 0.73576 5.10755 0.481406 5.29509 0.29387C5.48263 0.106333 5.73698 0.000976563 6.0022 0.000976562H8.0022C8.26741 0.000976563 8.52177 0.106333 8.7093 0.29387C8.89684 0.481406 9.0022 0.73576 9.0022 1.00098H12.5022C12.7674 1.00098 13.0218 1.10633 13.2093 1.29387C13.3968 1.48141 13.5022 1.73576 13.5022 2.00098V3.00098ZM3.1202 4.00098L3.0022 4.05998V13.001C3.0022 13.2662 3.10755 13.5205 3.29509 13.7081C3.48263 13.8956 3.73698 14.001 4.0022 14.001H10.0022C10.2674 14.001 10.5218 13.8956 10.7093 13.7081C10.8968 13.5205 11.0022 13.2662 11.0022 13.001V4.05998L10.8842 4.00098H3.1202ZM1.5022 3.00098V2.00098H12.5022V3.00098H1.5022Z" fill="#7C7C7C"/>
</svg>
