<svg width="142" height="82" viewBox="0 0 142 82" fill="none" xmlns="http://www.w3.org/2000/svg">
<path d="M100.533 0.331055C88.0307 0.331055 76.8426 5.95493 69.3574 14.8138C72.885 11.1567 77.1143 8.24918 81.792 6.26519C86.4698 4.28121 91.4998 3.2616 96.5809 3.26741C117.484 3.26741 134.435 20.2187 134.435 41.1215C134.435 62.0244 117.484 78.9757 96.5809 78.9757C91.4998 78.9815 86.4698 77.9619 81.792 75.9779C77.1143 73.9939 72.885 71.0863 69.3574 67.4293C76.8426 76.2881 88.0307 81.912 100.533 81.912C123.068 81.912 141.333 63.6469 141.333 41.1215C141.333 18.5962 123.068 0.331055 100.533 0.331055Z" fill="#FF6B00"/>
<path d="M31.8918 25.9133H34.3902C35.235 25.9133 36.0452 25.5777 36.6425 24.9804C37.2399 24.383 37.5754 23.5729 37.5754 22.7281C37.5754 21.8833 37.2399 21.0732 36.6425 20.4758C36.0452 19.8785 35.235 19.5429 34.3902 19.5429H31.9416C31.4618 19.5428 30.9883 19.6521 30.5571 19.8625C30.1259 20.073 29.7483 20.379 29.4532 20.7573L29.4034 20.817C27.7909 22.8874 29.2641 25.9133 31.8918 25.9133ZM24.9939 38.1763H45.0905C45.5231 38.2005 45.9561 38.1362 46.363 37.9874C46.7699 37.8385 47.1421 37.6081 47.457 37.3105C47.7718 37.0128 48.0225 36.654 48.1939 36.256C48.3653 35.8581 48.4537 35.4294 48.4537 34.9961C48.4537 34.5628 48.3653 34.1341 48.1939 33.7362C48.0225 33.3382 47.7718 32.9794 47.457 32.6817C47.1421 32.3841 46.7699 32.1537 46.363 32.0049C45.9561 31.856 45.5231 31.7917 45.0905 31.8159H24.9939C24.5613 31.7917 24.1283 31.856 23.7214 32.0049C23.3145 32.1537 22.9423 32.3841 22.6275 32.6817C22.3127 32.9794 22.0619 33.3382 21.8905 33.7362C21.7191 34.1341 21.6307 34.5628 21.6307 34.9961C21.6307 35.4294 21.7191 35.8581 21.8905 36.256C22.0619 36.654 22.3127 37.0128 22.6275 37.3105C22.9423 37.6081 23.3145 37.8385 23.7214 37.9874C24.1283 38.1362 24.5613 38.2005 24.9939 38.1763ZM12.9996 31.8159H3.16532C2.44266 31.816 1.74193 32.0642 1.18029 32.5189C0.618643 32.9737 0.230117 33.6074 0.0796566 34.3143C0.0796566 34.3441 0.0697029 34.364 0.0697029 34.3839C-0.0265133 34.8417 -0.0194228 35.3152 0.0904581 35.7698C0.200339 36.2245 0.410244 36.6489 0.704885 37.0122C0.999527 37.3755 1.37149 37.6685 1.79368 37.8699C2.21587 38.0713 2.67765 38.176 3.14541 38.1763H12.9996C13.4322 38.2005 13.8652 38.1362 14.2721 37.9874C14.679 37.8385 15.0512 37.6081 15.3661 37.3105C15.6809 37.0128 15.9316 36.654 16.103 36.256C16.2744 35.8581 16.3628 35.4294 16.3628 34.9961C16.3628 34.5628 16.2744 34.1341 16.103 33.7362C15.9316 33.3382 15.6809 32.9794 15.3661 32.6817C15.0512 32.3841 14.679 32.1537 14.2721 32.0049C13.8652 31.856 13.4322 31.7917 12.9996 31.8159ZM46.3746 25.9133H58.9362C59.781 25.9133 60.5911 25.5777 61.1885 24.9804C61.7858 24.383 62.1214 23.5729 62.1214 22.7281C62.1214 21.8833 61.7858 21.0732 61.1885 20.4758C60.5911 19.8785 59.781 19.5429 58.9362 19.5429H46.3746C45.5298 19.5429 44.7196 19.8785 44.1223 20.4758C43.5249 21.0732 43.1894 21.8833 43.1894 22.7281C43.1894 23.5729 43.5249 24.383 44.1223 24.9804C44.7196 25.5777 45.5298 25.9133 46.3746 25.9133ZM47.9074 56.3618H44.8019C42.1741 56.3618 40.7009 59.3778 42.3134 61.4482L42.3632 61.5079C42.6583 61.8862 43.0359 62.1922 43.4671 62.4026C43.8983 62.6131 44.3718 62.7224 44.8516 62.7223H47.9074C48.7201 62.6768 49.4846 62.3219 50.0438 61.7305C50.603 61.1391 50.9146 60.356 50.9146 59.542C50.9146 58.7281 50.603 57.945 50.0438 57.3536C49.4846 56.7622 48.7201 56.4073 47.9074 56.3618ZM96.7605 8.02641C90.19 8.01614 83.7667 9.97122 78.3161 13.6403H79.7196C81.3321 13.6403 82.6859 14.9045 82.7356 16.507C82.7463 16.9019 82.6777 17.2949 82.5339 17.6628C82.3901 18.0307 82.174 18.3661 81.8984 18.6491C81.6228 18.9321 81.2933 19.157 80.9294 19.3105C80.5654 19.464 80.1744 19.543 79.7794 19.5429H70.9205C70.0757 19.5429 69.2656 19.8785 68.6682 20.4758C68.0709 21.0732 67.7353 21.8833 67.7353 22.7281C67.7353 23.5729 68.0709 24.383 68.6682 24.9804C69.2656 25.5777 70.0757 25.9133 70.9205 25.9133H74.8323C76.4448 25.9133 77.8085 27.1675 77.8483 28.78C77.8604 29.1752 77.7927 29.5688 77.6494 29.9373C77.5061 30.3059 77.2901 30.6418 77.0142 30.9251C76.7384 31.2084 76.4083 31.4332 76.0437 31.5863C75.6791 31.7393 75.2875 31.8174 74.8921 31.8159H57.0748C56.2622 31.8614 55.4977 32.2162 54.9385 32.8077C54.3792 33.3991 54.0676 34.1821 54.0676 34.9961C54.0676 35.8101 54.3792 36.5931 54.9385 37.1845C55.4977 37.776 56.2622 38.1308 57.0748 38.1763H82.5564C84.169 38.1763 85.5326 39.4405 85.5724 41.053C85.5844 41.4473 85.5171 41.8401 85.3744 42.208C85.2317 42.5759 85.0166 42.9113 84.7418 43.1945C84.467 43.4776 84.1381 43.7027 83.7747 43.8563C83.4113 44.01 83.0207 44.089 82.6261 44.0889H73.7275C72.9148 44.1343 72.1504 44.4892 71.5911 45.0806C71.0319 45.6721 70.7203 46.4551 70.7203 47.2691C70.7203 48.083 71.0319 48.8661 71.5911 49.4575C72.1504 50.0489 72.9148 50.4038 73.7275 50.4493H83.4125C85.025 50.4493 86.3787 51.7134 86.4285 53.3259C86.4391 53.7208 86.3705 54.1138 86.2267 54.4817C86.0829 54.8496 85.8668 55.185 85.5913 55.468C85.3157 55.751 84.9862 55.9759 84.6222 56.1294C84.2582 56.283 83.8672 56.362 83.4722 56.3618H59.8918C59.4592 56.3376 59.0262 56.4019 58.6193 56.5508C58.2124 56.6997 57.8401 56.93 57.5253 57.2277C57.2105 57.5254 56.9597 57.8842 56.7883 58.2821C56.617 58.6801 56.5286 59.1088 56.5286 59.542C56.5286 59.9753 56.617 60.404 56.7883 60.802C56.9597 61.1999 57.2105 61.5587 57.5253 61.8564C57.8401 62.1541 58.2124 62.3844 58.6193 62.5333C59.0262 62.6822 59.4592 62.7465 59.8918 62.7223H79.3513C80.9639 62.7223 82.3176 63.9864 82.3673 65.5989C82.3766 65.9934 82.3071 66.3858 82.1628 66.7531C82.0185 67.1204 81.8024 67.4553 81.527 67.738C81.2517 68.0207 80.9228 68.2457 80.5594 68.3997C80.1961 68.5536 79.8057 68.6336 79.4111 68.6348H78.356C83.7986 72.2858 90.2067 74.23 96.7605 74.2189C115.036 74.2189 129.857 59.3977 129.857 41.1226C129.857 22.8475 115.036 8.02641 96.7605 8.02641ZM112.467 65.9473C112.164 66.1425 111.824 66.2734 111.468 66.332C111.112 66.3906 110.748 66.3755 110.399 66.2879C110.049 66.2002 109.721 66.0417 109.434 65.8222C109.148 65.6027 108.91 65.3268 108.735 65.0116L99.1991 47.8116L88.6681 65.2704C88.4804 65.5754 88.2325 65.8388 87.9394 66.0445C87.6464 66.2502 87.3143 66.3938 86.9638 66.4665C86.6132 66.5393 86.2514 66.5396 85.9007 66.4675C85.55 66.3954 85.2177 66.2524 84.9243 66.0472C84.6308 65.8421 84.3824 65.5792 84.1942 65.2745C84.0061 64.9699 83.8821 64.6301 83.83 64.2758C83.778 63.9216 83.7988 63.5605 83.8913 63.2146C83.9838 62.8687 84.1461 62.5453 84.368 62.2644L97.8852 45.4326L95.9641 41.9787C95.0185 40.2666 93.1672 39.3011 91.2262 39.4006C89.0762 39.5201 86.8266 38.3256 84.6567 34.9613C81.3222 29.7853 79.431 21.454 82.4768 19.4832C85.5227 17.5123 92.341 22.6783 95.6755 27.8543C97.8454 31.2087 98.0146 33.7569 97.0193 35.658C96.5734 36.5025 96.3743 37.4554 96.4448 38.4077C96.5152 39.36 96.8522 40.2733 97.4174 41.043L113.144 62.1748C113.359 62.463 113.512 62.792 113.594 63.1417C113.676 63.4913 113.686 63.8541 113.623 64.2076C113.559 64.5611 113.424 64.8979 113.225 65.1971C113.027 65.4963 112.769 65.7517 112.467 65.9473ZM116.439 32.3733C114.14 35.658 111.532 40.3363 107.102 40.3064C105.151 40.2965 103.28 41.043 102.275 42.7053L101.16 44.5567L99.9158 42.8944L100.861 41.7199C102.086 40.1969 102.135 38.1863 101.449 36.3647C99.8959 32.224 103.39 28.1529 105.689 24.8682C107.212 22.6783 110.377 19.1149 111.661 18.886L103.111 31.1291C103.009 31.2791 102.97 31.4628 103.002 31.6411C103.033 31.8195 103.133 31.9786 103.28 32.0846C103.429 32.1887 103.614 32.2294 103.793 32.1977C103.972 32.1659 104.131 32.0644 104.236 31.9154L112.945 19.4334C113.046 19.2927 113.19 19.1891 113.356 19.1387C113.521 19.0883 113.699 19.0939 113.861 19.1547H113.871C113.98 19.1971 114.079 19.2637 114.158 19.3495C114.238 19.4354 114.298 19.5381 114.332 19.6502C114.367 19.7623 114.375 19.8807 114.358 19.9966C114.34 20.1124 114.296 20.2228 114.229 20.3193L105.52 32.8113C105.469 32.8845 105.433 32.967 105.414 33.0541C105.395 33.1412 105.393 33.2313 105.409 33.3191C105.424 33.4069 105.457 33.4908 105.505 33.5659C105.553 33.641 105.616 33.7059 105.689 33.7569C105.762 33.8078 105.845 33.8439 105.932 33.863C106.019 33.8821 106.109 33.8838 106.197 33.8681C106.285 33.8524 106.368 33.8195 106.444 33.7714C106.519 33.7233 106.584 33.6608 106.635 33.5876L115.483 20.9165C115.6 20.7483 115.779 20.633 115.98 20.5957C116.181 20.5584 116.389 20.6022 116.558 20.7174H116.578C116.662 20.7751 116.733 20.8489 116.788 20.9344C116.843 21.0198 116.88 21.1154 116.898 21.2154C116.915 21.3154 116.913 21.4179 116.891 21.517C116.868 21.6161 116.826 21.7097 116.767 21.7924L107.919 34.4735C107.814 34.6227 107.774 34.8072 107.806 34.9863C107.837 35.1655 107.939 35.3247 108.088 35.4291C108.238 35.5306 108.422 35.5698 108.6 35.5382C108.778 35.5066 108.937 35.4068 109.043 35.2599L117.753 22.7779C117.822 22.6827 117.912 22.6043 118.015 22.5483C118.119 22.4924 118.233 22.4604 118.351 22.4547C118.468 22.4489 118.586 22.4696 118.694 22.5152C118.802 22.5608 118.899 22.6302 118.977 22.7181H118.987C119.098 22.8505 119.163 23.0153 119.172 23.1876C119.181 23.36 119.133 23.5305 119.037 23.6737L110.317 36.1657C110.266 36.2388 110.23 36.3213 110.211 36.4085C110.191 36.4957 110.19 36.5858 110.205 36.6737C110.221 36.7616 110.254 36.8455 110.302 36.9206C110.351 36.9957 110.413 37.0605 110.487 37.1113C110.636 37.2154 110.82 37.256 110.999 37.2243C111.179 37.1926 111.338 37.0911 111.442 36.9421L119.993 24.6989C120.221 25.983 117.962 30.1835 116.439 32.3733ZM30.2196 44.0889H19.38C18.9112 44.0889 18.4483 44.1937 18.0253 44.3957C17.6022 44.5976 17.2296 44.8916 16.9348 45.2561C16.64 45.6206 16.4304 46.0463 16.3213 46.5023C16.2122 46.9582 16.2064 47.4327 16.3043 47.8912C16.3043 47.9111 16.3142 47.931 16.3142 47.9509C16.463 48.6586 16.851 49.2934 17.4131 49.7485C17.9751 50.2035 18.6767 50.451 19.3999 50.4493H30.2196C31.0323 50.4038 31.7967 50.0489 32.356 49.4575C32.9152 48.8661 33.2268 48.083 33.2268 47.2691C33.2268 46.4551 32.9152 45.6721 32.356 45.0806C31.7967 44.4892 31.0323 44.1343 30.2196 44.0889ZM61.7432 50.4493C62.1758 50.4735 62.6087 50.4092 63.0156 50.2603C63.4225 50.1115 63.7948 49.8811 64.1096 49.5834C64.4244 49.2857 64.6752 48.927 64.8466 48.529C65.0179 48.1311 65.1063 47.7024 65.1063 47.2691C65.1063 46.8358 65.0179 46.4071 64.8466 46.0091C64.6752 45.6112 64.4244 45.2524 64.1096 44.9547C63.7948 44.657 63.4225 44.4267 63.0156 44.2778C62.6087 44.1289 62.1758 44.0646 61.7432 44.0889H42.2039C41.7713 44.0646 41.3383 44.1289 40.9315 44.2778C40.5246 44.4267 40.1523 44.657 39.8375 44.9547C39.5227 45.2524 39.2719 45.6112 39.1005 46.0091C38.9291 46.4071 38.8407 46.8358 38.8407 47.2691C38.8407 47.7024 38.9291 48.1311 39.1005 48.529C39.2719 48.927 39.5227 49.2857 39.8375 49.5834C40.1523 49.8811 40.5246 50.1115 40.9315 50.2603C41.3383 50.4092 41.7713 50.4735 42.2039 50.4493H61.7432Z" fill="#FF6B00"/>
</svg>
