<svg width="1920" height="1080" viewBox="0 0 1920 1080" fill="none" xmlns="http://www.w3.org/2000/svg">
<g clip-path="url(#clip0_1_12615)">
<path d="M-54.0001 1249.8L1974 1249.8L1974 -169.801L-54.0001 -169.801L-54.0001 1249.8Z" fill="#EFF0ED"/>
<g opacity="0.18">
<path d="M620.646 785.466H538.716V942.809H620.646V785.466Z" fill="#B5C3C2"/>
<path d="M607.259 887.969H552.104V954.09H607.259V887.969Z" fill="#B5C3C2"/>
<path d="M594.979 924.57H564.384V961.246H594.979V924.57Z" fill="#B5C3C2"/>
<path d="M590.106 942.398H569.256V967.391H576.778H584.231H590.106V942.398Z" fill="#B5C3C2"/>
<path d="M578.306 953.285H576.044V978.278H576.862H577.669H578.306V953.285Z" fill="#B5C3C2"/>
<path d="M583.315 961.923H581.054V986.916H581.869H582.679H583.315V961.923Z" fill="#B5C3C2"/>
<path d="M622.829 941.537H536.53V943.212H622.829V941.537Z" fill="#B5C3C2"/>
<path d="M609.272 953.283H550.091V954.895H609.272V953.283Z" fill="#B5C3C2"/>
<path d="M596.258 960.687H562.153V961.924H596.258V960.687Z" fill="#B5C3C2"/>
<path opacity="0.29" d="M559.739 944.479H557.175V951.409H559.739V944.479Z" fill="#B5C3C2"/>
<path opacity="0.29" d="M566.834 944.479H564.269V951.409H566.834V944.479Z" fill="#B5C3C2"/>
<path opacity="0.29" d="M573.93 944.479H571.364V951.409H573.93V944.479Z" fill="#B5C3C2"/>
<path opacity="0.29" d="M581.023 944.479H578.458V951.409H581.023V944.479Z" fill="#B5C3C2"/>
<path opacity="0.29" d="M588.118 944.479H585.553V951.409H588.118V944.479Z" fill="#B5C3C2"/>
<path opacity="0.29" d="M595.213 944.479H592.648V951.409H595.213V944.479Z" fill="#B5C3C2"/>
<path opacity="0.29" d="M602.308 944.479H599.743V951.409H602.308V944.479Z" fill="#B5C3C2"/>
<path d="M552.103 928.314H545.908V936.534H552.103V928.314Z" fill="#B5C3C2"/>
<path opacity="0.29" d="M564.372 928.314H558.177V936.534H564.372V928.314Z" fill="#B5C3C2"/>
<path d="M576.644 928.314H570.448V936.534H576.644V928.314Z" fill="#B5C3C2"/>
<path d="M588.913 928.314H582.717V936.534H588.913V928.314Z" fill="#B5C3C2"/>
<path d="M601.185 928.314H594.989V936.534H601.185V928.314Z" fill="#B5C3C2"/>
<path d="M613.454 928.314H607.258V936.534H613.454V928.314Z" fill="#B5C3C2"/>
<path d="M552.103 915.505H545.908V923.724H552.103V915.505Z" fill="#B5C3C2"/>
<path d="M564.372 915.505H558.177V923.724H564.372V915.505Z" fill="#B5C3C2"/>
<path d="M576.644 915.505H570.448V923.724H576.644V915.505Z" fill="#B5C3C2"/>
<path opacity="0.29" d="M588.913 915.505H582.717V923.724H588.913V915.505Z" fill="#B5C3C2"/>
<path d="M601.185 915.505H594.989V923.724H601.185V915.505Z" fill="#B5C3C2"/>
<path d="M613.454 915.505H607.258V923.724H613.454V915.505Z" fill="#B5C3C2"/>
<path d="M552.103 902.69H545.908V910.91H552.103V902.69Z" fill="#B5C3C2"/>
<path d="M564.372 902.69H558.177V910.91H564.372V902.69Z" fill="#B5C3C2"/>
<path d="M576.644 902.69H570.448V910.91H576.644V902.69Z" fill="#B5C3C2"/>
<path d="M588.913 902.69H582.717V910.91H588.913V902.69Z" fill="#B5C3C2"/>
<path opacity="0.29" d="M601.185 902.69H594.989V910.91H601.185V902.69Z" fill="#B5C3C2"/>
<path opacity="0.29" d="M613.454 902.69H607.258V910.91H613.454V902.69Z" fill="#B5C3C2"/>
<path opacity="0.29" d="M552.103 889.879H545.908V898.099H552.103V889.879Z" fill="#B5C3C2"/>
<path d="M564.372 889.879H558.177V898.099H564.372V889.879Z" fill="#B5C3C2"/>
<path d="M576.644 889.879H570.448V898.099H576.644V889.879Z" fill="#B5C3C2"/>
<path d="M588.913 889.879H582.717V898.099H588.913V889.879Z" fill="#B5C3C2"/>
<path d="M601.185 889.879H594.989V898.099H601.185V889.879Z" fill="#B5C3C2"/>
<path d="M613.454 889.879H607.258V898.099H613.454V889.879Z" fill="#B5C3C2"/>
<path d="M552.103 877.065H545.908V885.285H552.103V877.065Z" fill="#B5C3C2"/>
<path opacity="0.29" d="M564.372 877.065H558.177V885.285H564.372V877.065Z" fill="#B5C3C2"/>
<path d="M576.644 877.065H570.448V885.285H576.644V877.065Z" fill="#B5C3C2"/>
<path opacity="0.29" d="M588.913 877.065H582.717V885.285H588.913V877.065Z" fill="#B5C3C2"/>
<path d="M601.185 877.065H594.989V885.285H601.185V877.065Z" fill="#B5C3C2"/>
<path d="M613.454 877.065H607.258V885.285H613.454V877.065Z" fill="#B5C3C2"/>
<path d="M552.103 864.251H545.908V872.47H552.103V864.251Z" fill="#B5C3C2"/>
<path d="M564.372 864.251H558.177V872.47H564.372V864.251Z" fill="#B5C3C2"/>
<path d="M576.644 864.251H570.448V872.47H576.644V864.251Z" fill="#B5C3C2"/>
<path d="M588.913 864.251H582.717V872.47H588.913V864.251Z" fill="#B5C3C2"/>
<path d="M601.185 864.251H594.989V872.47H601.185V864.251Z" fill="#B5C3C2"/>
<path opacity="0.29" d="M613.454 864.251H607.258V872.47H613.454V864.251Z" fill="#B5C3C2"/>
<path d="M552.103 851.44H545.908V859.659H552.103V851.44Z" fill="#B5C3C2"/>
<path opacity="0.29" d="M564.372 851.44H558.177V859.659H564.372V851.44Z" fill="#B5C3C2"/>
<path opacity="0.29" d="M576.644 851.44H570.448V859.659H576.644V851.44Z" fill="#B5C3C2"/>
<path d="M588.913 851.44H582.717V859.659H588.913V851.44Z" fill="#B5C3C2"/>
<path d="M601.185 851.44H594.989V859.659H601.185V851.44Z" fill="#B5C3C2"/>
<path d="M613.454 851.44H607.258V859.659H613.454V851.44Z" fill="#B5C3C2"/>
<path d="M552.103 838.626H545.908V846.845H552.103V838.626Z" fill="#B5C3C2"/>
<path d="M564.372 838.626H558.177V846.845H564.372V838.626Z" fill="#B5C3C2"/>
<path d="M576.644 838.626H570.448V846.845H576.644V838.626Z" fill="#B5C3C2"/>
<path d="M588.913 838.626H582.717V846.845H588.913V838.626Z" fill="#B5C3C2"/>
<path opacity="0.29" d="M601.185 838.626H594.989V846.845H601.185V838.626Z" fill="#B5C3C2"/>
<path d="M613.454 838.626H607.258V846.845H613.454V838.626Z" fill="#B5C3C2"/>
<path d="M552.103 825.813H545.908V834.032H552.103V825.813Z" fill="#B5C3C2"/>
<path opacity="0.29" d="M564.372 825.813H558.177V834.032H564.372V825.813Z" fill="#B5C3C2"/>
<path d="M576.644 825.813H570.448V834.032H576.644V825.813Z" fill="#B5C3C2"/>
<path d="M588.913 825.813H582.717V834.032H588.913V825.813Z" fill="#B5C3C2"/>
<path d="M601.185 825.813H594.989V834.032H601.185V825.813Z" fill="#B5C3C2"/>
<path d="M613.454 825.813H607.258V834.032H613.454V825.813Z" fill="#B5C3C2"/>
<path d="M552.103 813H545.908V821.22H552.103V813Z" fill="#B5C3C2"/>
<path d="M564.372 813H558.177V821.22H564.372V813Z" fill="#B5C3C2"/>
<path d="M576.644 813H570.448V821.22H576.644V813Z" fill="#B5C3C2"/>
<path opacity="0.29" d="M588.913 813H582.717V821.22H588.913V813Z" fill="#B5C3C2"/>
<path d="M601.185 813H594.989V821.22H601.185V813Z" fill="#B5C3C2"/>
<path opacity="0.29" d="M613.454 813H607.258V821.22H613.454V813Z" fill="#B5C3C2"/>
<path opacity="0.29" d="M552.103 800.189H545.908V808.409H552.103V800.189Z" fill="#B5C3C2"/>
<path d="M564.372 800.189H558.177V808.409H564.372V800.189Z" fill="#B5C3C2"/>
<path opacity="0.29" d="M576.644 800.189H570.448V808.409H576.644V800.189Z" fill="#B5C3C2"/>
<path d="M588.913 800.189H582.717V808.409H588.913V800.189Z" fill="#B5C3C2"/>
<path d="M601.185 800.189H594.989V808.409H601.185V800.189Z" fill="#B5C3C2"/>
<path d="M613.454 800.189H607.258V808.409H613.454V800.189Z" fill="#B5C3C2"/>
<path d="M432.475 804.275H300.773V936.823H432.475V804.275Z" fill="#B5C3C2"/>
<path d="M436.219 935.354H297.031V939.1H436.219V935.354Z" fill="#B5C3C2"/>
<path d="M428.047 926.091H305.199V943.899H428.047V926.091Z" fill="#B5C3C2"/>
<path d="M363.252 931.726H314.604V951.183H363.252V931.726Z" fill="#B5C3C2"/>
<path d="M342.757 945.7H314.604V955.942H334.795L342.757 945.7Z" fill="#B5C3C2"/>
<path d="M328.68 941.63H325.95V964.443H328.68V941.63Z" fill="#B5C3C2"/>
<path d="M327.315 966.807C328.669 966.807 329.766 966.277 329.766 965.624C329.766 964.971 328.669 964.442 327.315 964.442C325.961 964.442 324.863 964.971 324.863 965.624C324.863 966.277 325.961 966.807 327.315 966.807Z" fill="#B5C3C2"/>
<path d="M1523.11 794.186H1378.94L1360.95 989.066L1523.11 972.826V794.186Z" fill="#B5C3C2"/>
<path d="M894.132 905.482V970.635H871.522V988.086H863.444V1013.68H818.942V1032.5H814.981V1013.68H806.262V1037.23H802.304V1013.68H774.169V970.635H759.637V905.482H747.179V786.809H902.891V905.482H894.132Z" fill="#B5C3C2"/>
<path d="M1839.23 776.834H116.707V796.601H1839.23V776.834Z" fill="#B5C3C2"/>
<path d="M1130.64 781.679H1054.36L1084.08 855.371H1130.64V781.679Z" fill="#95A9A7"/>
<path d="M1863.48 747.641H54.9058V778.809H1863.48V747.641Z" fill="#95A9A7"/>
<path d="M1068.13 918.046V950.701H1043.64V963.135H1030.53V973.577H1025.94V991.48H1024.75V973.577H1020.15V963.135H1007.05V950.701H982.742V918.046H977.69V858.758H940.008V791.175H977.69H1015.37H1072.99V918.046H1068.13Z" fill="#95A9A7"/>
<path d="M1208.88 880.536H1090.34V879.496H1095.7V782.783H1203.52V879.496H1208.88V880.536Z" fill="#95A9A7"/>
<path d="M668.317 775.883H563.214V856.445H668.317V775.883Z" fill="#95A9A7"/>
<path d="M547.383 775.883H366.624V815.169H547.383V775.883Z" fill="#95A9A7"/>
<path d="M503.193 806.467H463.511V902.943H503.193V806.467Z" fill="#95A9A7"/>
<path d="M474.332 876.214H472.272V928.681H474.332V876.214Z" fill="#95A9A7"/>
<path d="M481.033 872.234H478.973V924.701H481.033V872.234Z" fill="#95A9A7"/>
<path d="M490.827 895.981H466.572V908.911H490.827V895.981Z" fill="#95A9A7"/>
<path d="M609.358 775.883H540.3V842.024H609.358V775.883Z" fill="#95A9A7"/>
<path d="M814.986 775.883H685.354V912.018H814.986V775.883Z" fill="#95A9A7"/>
<path d="M802.25 894.021H698.09V916.696H802.25V894.021Z" fill="#95A9A7"/>
<path d="M825.034 907.579H675.305V909.171H825.034V907.579Z" fill="#95A9A7"/>
<path d="M722.949 775.883H661.868V844.634H722.949V775.883Z" fill="#95A9A7"/>
<path d="M294.473 775.883H224.384V847.246H294.473V775.883Z" fill="#95A9A7"/>
<path d="M386.723 775.882H247.061V866.639H386.723V775.882Z" fill="#95A9A7"/>
<path d="M390.331 866.639H238.912V870.121H390.331V866.639Z" fill="#95A9A7"/>
<path d="M314.621 861.169H253.244V879.57H314.621V861.169Z" fill="#95A9A7"/>
<path d="M344.976 868.383H334.67V879.571H344.976V868.383Z" fill="#95A9A7"/>
<path d="M366.623 868.383H355.285V879.571H366.623V868.383Z" fill="#95A9A7"/>
<path d="M259.428 775.883H186.248V803.484H259.428V775.883Z" fill="#95A9A7"/>
<path d="M193.258 775.883H158.605V815.169H193.258V775.883Z" fill="#95A9A7"/>
<path d="M175.933 775.883H116.707V789.683H175.933V775.883Z" fill="#95A9A7"/>
<path d="M1532.03 775.883H802.252V806.467H1532.03V775.883Z" fill="#95A9A7"/>
<path d="M1482.52 886.898C1482.52 884.562 1478.6 882.668 1473.75 882.668C1468.99 882.668 1465.11 884.501 1464.99 886.784L1454.71 886.945C1454.2 880.035 1450.9 873.361 1445.09 867.222L1454.52 865.123C1455.77 866.725 1458.97 867.865 1462.73 867.865C1467.57 867.865 1471.5 865.971 1471.5 863.635C1471.5 861.299 1467.57 859.404 1462.73 859.404C1457.88 859.404 1453.96 861.299 1453.96 863.635C1453.96 863.992 1454.05 864.341 1454.22 864.671L1444.68 866.796C1439.42 861.37 1432.18 856.369 1423.13 852.006C1422.42 851.662 1421.69 851.323 1420.96 850.99L1429.59 846.547C1431.01 847.021 1432.73 847.301 1434.59 847.301C1439.43 847.301 1443.36 845.407 1443.36 843.069C1443.36 840.733 1439.43 838.838 1434.59 838.838C1429.75 838.838 1425.82 840.733 1425.82 843.069C1425.82 844.34 1426.98 845.48 1428.82 846.255L1420.25 850.668C1414.18 847.94 1407.55 845.586 1400.51 843.629L1453.39 796.603H1462.88V795.259H1467.53V792.588H1225.92V795.259H1230.57V796.603H1240.06L1292.94 843.629C1284.77 845.898 1277.16 848.703 1270.31 852.006C1269.6 852.351 1268.9 852.7 1268.21 853.053L1261.49 850.017C1262.77 849.283 1263.54 848.334 1263.54 847.299C1263.54 844.963 1259.61 843.067 1254.77 843.067C1249.92 843.067 1246 844.961 1246 847.299C1246 849.636 1249.93 851.53 1254.77 851.53C1257.12 851.53 1259.25 851.084 1260.83 850.357L1267.54 853.393C1257.78 858.457 1250.32 864.302 1245.43 870.627L1236.86 869.104C1237.11 868.713 1237.24 868.297 1237.24 867.865C1237.24 865.529 1233.31 863.635 1228.47 863.635C1223.62 863.635 1219.7 865.529 1219.7 867.865C1219.7 870.202 1223.63 872.096 1228.47 872.096C1232.07 872.096 1235.17 871.045 1236.52 869.544L1245.1 871.069C1240.87 876.701 1238.66 882.704 1238.66 888.871C1238.66 889.358 1238.68 889.845 1238.71 890.329L1228.26 890.494C1227.88 888.322 1224.11 886.614 1219.52 886.614C1214.68 886.614 1210.75 888.508 1210.75 890.844C1210.75 893.181 1214.68 895.075 1219.52 895.075C1224.28 895.075 1228.15 893.244 1228.28 890.96L1238.74 890.796C1239.25 897.705 1242.55 904.379 1248.36 910.518L1240.26 912.321C1238.87 910.877 1235.83 909.875 1232.31 909.875C1227.47 909.875 1223.54 911.769 1223.54 914.106C1223.54 916.442 1227.47 918.336 1232.31 918.336C1237.15 918.336 1241.08 916.442 1241.08 914.106C1241.08 913.635 1240.92 913.181 1240.62 912.757L1248.77 910.944C1254.03 916.371 1261.27 921.372 1270.31 925.734C1271.03 926.079 1271.75 926.418 1272.48 926.75L1266.08 930.044C1264.54 929.395 1262.53 929.001 1260.32 929.001C1255.48 929.001 1251.55 930.895 1251.55 933.232C1251.55 935.568 1255.48 937.462 1260.32 937.462C1265.17 937.462 1269.09 935.568 1269.09 933.232C1269.09 932.128 1268.22 931.125 1266.78 930.37L1273.19 927.071C1284.06 931.95 1296.67 935.635 1310.32 937.985L1306.79 942.836C1306.02 942.731 1305.21 942.672 1304.37 942.672C1299.53 942.672 1295.6 944.566 1295.6 946.902C1295.6 949.239 1299.53 951.133 1304.37 951.133C1309.22 951.133 1313.14 949.239 1313.14 946.902C1313.14 945.136 1310.9 943.621 1307.71 942.988L1311.25 938.148C1322.51 940.03 1334.46 941.009 1346.73 941.009C1347.74 941.009 1348.74 941.001 1349.75 940.989L1350.15 946.945C1345.9 947.239 1342.63 949.001 1342.63 951.133C1342.63 953.469 1346.56 955.363 1351.4 955.363C1356.24 955.363 1360.17 953.469 1360.17 951.133C1360.17 948.797 1356.24 946.902 1351.4 946.902C1351.31 946.902 1351.21 946.905 1351.12 946.907L1350.72 940.977C1363.46 940.756 1375.82 939.472 1387.35 937.217L1391.03 941.544C1387.96 942.204 1385.83 943.686 1385.83 945.41C1385.83 947.746 1389.75 949.642 1394.6 949.642C1399.44 949.642 1403.37 947.748 1403.37 945.41C1403.37 943.074 1399.44 941.179 1394.6 941.179C1393.67 941.179 1392.78 941.248 1391.94 941.378L1388.25 937.038C1401.13 934.453 1412.97 930.646 1423.14 925.74C1423.85 925.396 1424.55 925.047 1425.25 924.694L1431.96 927.73C1430.68 928.464 1429.91 929.413 1429.91 930.447C1429.91 932.784 1433.84 934.678 1438.68 934.678C1443.52 934.678 1447.45 932.784 1447.45 930.447C1447.45 928.111 1443.52 926.217 1438.68 926.217C1436.33 926.217 1434.2 926.663 1432.63 927.389L1425.91 924.353C1435.67 919.289 1443.13 913.445 1448.02 907.119L1456.59 908.642C1456.34 909.034 1456.21 909.449 1456.21 909.881C1456.21 912.218 1460.14 914.112 1464.98 914.112C1469.82 914.112 1473.75 912.218 1473.75 909.881C1473.75 907.545 1469.82 905.651 1464.98 905.651C1461.37 905.651 1458.28 906.701 1456.93 908.202L1448.35 906.677C1452.58 901.045 1454.79 895.043 1454.79 888.875C1454.79 888.389 1454.77 887.902 1454.74 887.417L1465.01 887.257C1465.39 889.427 1469.15 891.132 1473.75 891.132C1478.6 891.128 1482.52 889.234 1482.52 886.898ZM1445.61 906.188L1417.15 901.132C1420.02 897.304 1421.59 893.175 1421.59 888.873C1421.59 888.559 1421.59 888.247 1421.57 887.934L1451.82 887.46C1451.85 887.93 1451.87 888.401 1451.87 888.873C1451.87 894.872 1449.72 900.711 1445.61 906.188ZM1420.13 888.873C1420.13 893.089 1418.59 897.135 1415.78 900.889L1352.41 889.632C1352.52 889.435 1352.59 889.228 1352.61 889.015L1420.11 887.957C1420.12 888.261 1420.13 888.567 1420.13 888.873ZM1273.32 888.873C1273.32 884.657 1274.86 880.611 1277.67 876.857L1341.04 888.115C1340.93 888.312 1340.86 888.518 1340.84 888.731L1273.34 889.79C1273.33 889.484 1273.32 889.179 1273.32 888.873ZM1352.07 890.074L1415.44 901.331C1412.06 905.653 1406.98 909.575 1400.6 912.907L1351.35 890.64C1351.63 890.465 1351.87 890.277 1352.07 890.074ZM1399.93 913.25C1392.97 916.785 1384.52 919.63 1375.06 921.544L1349.41 891.406C1349.87 891.293 1350.3 891.151 1350.68 890.982L1399.93 913.25ZM1374.16 921.723C1366.52 923.213 1358.25 924.1 1349.6 924.262L1347.4 891.7C1347.78 891.68 1348.15 891.642 1348.51 891.587L1374.16 921.723ZM1348.62 924.278C1347.99 924.286 1347.36 924.29 1346.73 924.29C1338.35 924.29 1330.29 923.607 1322.78 922.354L1345.23 891.625C1345.62 891.674 1346.02 891.704 1346.43 891.714L1348.62 924.278ZM1321.86 922.197C1312.53 920.571 1304.06 918.054 1296.92 914.864L1343.06 891.102C1343.44 891.248 1343.86 891.372 1344.31 891.469L1321.86 922.197ZM1296.2 914.544C1289.63 911.528 1284.21 907.932 1280.29 903.929L1341.59 890.275C1341.81 890.457 1342.06 890.627 1342.35 890.782L1296.2 914.544ZM1279.88 903.503C1276.04 899.439 1273.76 894.965 1273.38 890.258L1340.87 889.2C1340.92 889.425 1341.03 889.642 1341.18 889.849L1279.88 903.503ZM1278.01 876.415C1281.39 872.094 1286.47 868.171 1292.86 864.839L1341.54 886.851L1341.94 887.208C1341.73 887.354 1341.54 887.508 1341.38 887.673L1278.01 876.415ZM1293.52 864.497C1298.22 862.112 1303.6 860.041 1309.5 858.358L1340.07 885.541L1293.52 864.497ZM1311.19 857.892C1313.52 857.269 1315.92 856.703 1318.39 856.202L1344.04 886.34C1343.82 886.395 1343.6 886.458 1343.4 886.527L1311.19 857.892ZM1319.29 856.024C1326.93 854.533 1335.2 853.647 1343.85 853.485L1346.05 886.046C1345.67 886.067 1345.3 886.105 1344.94 886.16L1319.29 856.024ZM1370.67 855.393L1348.22 886.121C1347.83 886.073 1347.43 886.042 1347.02 886.032L1344.83 853.468C1345.46 853.46 1346.09 853.456 1346.72 853.456C1355.11 853.456 1363.16 854.14 1370.67 855.393ZM1371.59 855.549C1375.29 856.194 1378.86 856.979 1382.26 857.892L1350.06 886.527C1349.77 886.432 1349.46 886.348 1349.14 886.277L1371.59 855.549ZM1383.95 858.358C1388.48 859.65 1392.69 861.167 1396.53 862.882L1354.55 884.497L1383.95 858.358ZM1397.25 863.203C1403.82 866.218 1409.24 869.814 1413.16 873.817L1351.86 887.472C1351.75 887.381 1351.63 887.293 1351.51 887.21L1352.72 886.131L1397.25 863.203ZM1413.57 874.243C1417.41 878.307 1419.69 882.781 1420.07 887.488L1352.58 888.547C1352.53 888.322 1352.42 888.105 1352.27 887.898L1413.57 874.243ZM1310.5 857.271L1296.03 844.405C1299.37 843.517 1302.8 842.718 1306.31 842.012L1317.84 855.549C1315.32 856.06 1312.87 856.636 1310.5 857.271ZM1307.22 841.836C1318.43 839.644 1330.44 838.398 1342.82 838.181L1343.81 852.783C1334.98 852.947 1326.53 853.852 1318.74 855.373L1307.22 841.836ZM1343.8 838.165C1344.77 838.153 1345.75 838.145 1346.73 838.145C1358.66 838.145 1370.28 839.098 1381.23 840.927L1371.15 854.726C1363.49 853.446 1355.27 852.751 1346.72 852.751C1346.07 852.751 1345.42 852.755 1344.78 852.763L1343.8 838.165ZM1382.15 841.083C1387.42 841.99 1392.52 843.099 1397.42 844.405L1382.95 857.271C1379.48 856.342 1375.85 855.541 1372.07 854.884L1382.15 841.083ZM1423.78 923.388L1401.66 913.388C1408.18 909.989 1413.37 905.986 1416.81 901.575L1445.27 906.63C1440.52 912.779 1433.27 918.464 1423.78 923.388ZM1387.14 935.732L1375.62 922.195C1385.27 920.24 1393.89 917.338 1401 913.73L1423.11 923.729C1422.44 924.069 1421.76 924.408 1421.07 924.743C1411.18 929.514 1399.67 933.218 1387.14 935.732ZM1350.63 939.567L1349.64 924.966C1358.47 924.801 1366.92 923.897 1374.71 922.374L1386.23 935.911C1375.02 938.103 1363.01 939.35 1350.63 939.567ZM1312.22 936.817L1322.3 923.019C1329.96 924.298 1338.18 924.994 1346.73 924.994C1347.38 924.994 1348.02 924.99 1348.67 924.982L1349.65 939.579C1348.68 939.591 1347.7 939.6 1346.73 939.6C1334.79 939.602 1323.17 938.648 1312.22 936.817ZM1275.19 926.051L1295.92 915.379C1303.21 918.636 1311.85 921.204 1321.38 922.865L1311.3 936.665C1298.02 934.375 1285.76 930.794 1275.19 926.051ZM1251.42 910.358L1278.97 904.223C1282.96 908.31 1288.49 911.98 1295.21 915.057L1274.48 925.728C1273.77 925.406 1273.07 925.077 1272.38 924.743C1263.59 920.5 1256.54 915.637 1251.42 910.358ZM1241.66 890.755L1271.92 890.281C1272.3 895.083 1274.63 899.65 1278.55 903.797L1251.01 909.932C1245.36 903.964 1242.16 897.474 1241.66 890.755ZM1247.84 871.558L1276.3 876.614C1273.43 880.443 1271.86 884.572 1271.86 888.873C1271.86 889.188 1271.87 889.5 1271.88 889.812L1241.63 890.287C1241.6 889.816 1241.59 889.346 1241.59 888.873C1241.59 882.874 1243.73 877.036 1247.84 871.558ZM1269.67 854.359L1291.79 864.359C1285.27 867.758 1280.09 871.761 1276.64 876.172L1248.18 871.116C1252.93 864.967 1260.18 859.283 1269.67 854.359ZM1294.33 844.868L1308.81 857.737C1302.76 859.457 1297.26 861.574 1292.45 864.014L1270.34 854.016C1271.01 853.675 1271.69 853.337 1272.38 853.002C1279.03 849.798 1286.4 847.074 1294.33 844.868ZM1398.82 843.166C1393.78 841.826 1388.53 840.684 1383.13 839.753L1386.26 835.46C1387.15 835.604 1388.09 835.683 1389.08 835.683C1393.92 835.683 1397.85 833.789 1397.85 831.452C1397.85 829.116 1393.92 827.222 1389.08 827.222C1384.23 827.222 1380.31 829.116 1380.31 831.452C1380.31 833.148 1382.37 834.61 1385.36 835.285L1382.21 839.599C1370.95 837.717 1358.99 836.737 1346.73 836.737C1345.72 836.737 1344.71 836.746 1343.7 836.758L1343.41 832.32C1347.89 832.132 1351.4 830.317 1351.4 828.106C1351.4 825.77 1347.48 823.874 1342.63 823.874C1337.79 823.874 1333.86 825.768 1333.86 828.106C1333.86 830.41 1337.68 832.284 1342.43 832.335L1342.73 836.772C1329.99 836.993 1317.64 838.277 1306.1 840.532L1302.42 836.204C1305.49 835.545 1307.62 834.063 1307.62 832.339C1307.62 830.002 1303.7 828.108 1298.85 828.108C1294.01 828.108 1290.08 830.002 1290.08 832.339C1290.08 834.675 1294.01 836.569 1298.85 836.569C1299.78 836.569 1300.67 836.5 1301.51 836.37L1305.2 840.708C1301.59 841.432 1298.07 842.254 1294.63 843.166L1242.28 796.603H1451.18L1398.82 843.166ZM1418.26 851.696L1397.53 862.369C1393.6 860.615 1389.29 859.06 1384.65 857.739L1399.12 844.87C1405.95 846.768 1412.37 849.051 1418.26 851.696ZM1442.03 867.389L1414.48 873.523C1410.49 869.437 1404.96 865.766 1398.25 862.69L1418.97 852.018C1419.68 852.341 1420.38 852.669 1421.07 853.004C1429.87 857.247 1436.91 862.11 1442.03 867.389ZM1451.79 886.989L1421.53 887.464C1421.15 882.661 1418.82 878.094 1414.9 873.947L1442.44 867.813C1448.09 873.783 1451.29 880.272 1451.79 886.989Z" fill="#95A9A7"/>
<path d="M1607.61 775.883H1494.92V855.549H1607.61V775.883Z" fill="#95A9A7"/>
<path d="M1703.81 776.333H1591.12V824.575H1703.81V776.333Z" fill="#95A9A7"/>
<path d="M1217.31 791.175H1154.09V831.66H1217.31V791.175Z" fill="#95A9A7"/>
<path d="M1630.97 775.883H1551.27V931.309H1630.97V775.883Z" fill="#95A9A7"/>
<path d="M1762.22 775.883H1657.09V866.64H1736.8L1762.22 775.883Z" fill="#95A9A7"/>
<path d="M1808.26 775.883H1716.18V796.601H1808.26V775.883Z" fill="#95A9A7"/>
<path d="M1613.11 921.544H1610.36V963.781H1613.11V921.544Z" fill="#95A9A7"/>
<path d="M1622.39 912.481H1619.64V954.718H1622.39V912.481Z" fill="#95A9A7"/>
<path d="M1604.69 906.651H1601.94V948.888H1604.69V906.651Z" fill="#95A9A7"/>
<path d="M1698.83 859.677H1661.21V873.975H1698.83V859.677Z" fill="#95A9A7"/>
<path d="M1694.71 871.036H1665.33V879.073H1694.71V871.036Z" fill="#95A9A7"/>
<path d="M1720.99 864.015H1713.78V869.789H1720.99V864.015Z" fill="#95A9A7"/>
<path d="M1733.85 864.015H1723.54V875.056H1733.85V864.015Z" fill="#95A9A7"/>
<path d="M1249.33 747.639H1153.77V896.249H1249.33V747.639Z" fill="#658280"/>
<path d="M1256.47 893.858H1146.64V895.365H1256.47V893.858Z" fill="#658280"/>
<path d="M1253.5 872.989H1149.61V874.489H1253.5V872.989Z" fill="#658280"/>
<path d="M1253.5 852.774H1149.61V854.275H1253.5V852.774Z" fill="#658280"/>
<path d="M1253.5 832.559H1149.61V834.06H1253.5V832.559Z" fill="#658280"/>
<path d="M1253.5 812.343H1149.61V813.843H1253.5V812.343Z" fill="#658280"/>
<path d="M1253.5 792.125H1149.61V793.626H1253.5V792.125Z" fill="#658280"/>
<path d="M1253.5 771.91H1149.61V773.411H1253.5V771.91Z" fill="#658280"/>
<path d="M1260.1 895.365H1143V899.472H1260.1V895.365Z" fill="#658280"/>
<path opacity="0.29" d="M1172.3 877.105H1162.38V888.977H1172.3V877.105Z" fill="#658280"/>
<path d="M1194.51 877.105H1184.58V888.977H1194.51V877.105Z" fill="#658280"/>
<path d="M1216.72 877.105H1206.79V888.977H1216.72V877.105Z" fill="#658280"/>
<path d="M1238.93 877.105H1229V888.977H1238.93V877.105Z" fill="#658280"/>
<path d="M1172.3 857.695H1162.38V869.567H1172.3V857.695Z" fill="#658280"/>
<path opacity="0.29" d="M1194.51 857.695H1184.58V869.567H1194.51V857.695Z" fill="#658280"/>
<path d="M1216.72 857.695H1206.79V869.567H1216.72V857.695Z" fill="#658280"/>
<path d="M1238.93 857.695H1229V869.567H1238.93V857.695Z" fill="#658280"/>
<path d="M1172.3 837.48H1162.38V849.352H1172.3V837.48Z" fill="#658280"/>
<path d="M1194.51 837.48H1184.58V849.352H1194.51V837.48Z" fill="#658280"/>
<path d="M1216.72 837.48H1206.79V849.352H1216.72V837.48Z" fill="#658280"/>
<path opacity="0.29" d="M1238.93 837.48H1229V849.352H1238.93V837.48Z" fill="#658280"/>
<path d="M1172.3 817.264H1162.38V829.136H1172.3V817.264Z" fill="#658280"/>
<path opacity="0.29" d="M1194.51 817.264H1184.58V829.136H1194.51V817.264Z" fill="#658280"/>
<path opacity="0.29" d="M1216.72 817.264H1206.79V829.136H1216.72V817.264Z" fill="#658280"/>
<path d="M1238.93 817.264H1229V829.136H1238.93V817.264Z" fill="#658280"/>
<path opacity="0.29" d="M1172.3 797.049H1162.38V808.921H1172.3V797.049Z" fill="#658280"/>
<path d="M1194.51 797.049H1184.58V808.921H1194.51V797.049Z" fill="#658280"/>
<path d="M1216.72 797.049H1206.79V808.921H1216.72V797.049Z" fill="#658280"/>
<path d="M1238.93 797.049H1229V808.921H1238.93V797.049Z" fill="#658280"/>
<path d="M1172.3 776.831H1162.38V788.703H1172.3V776.831Z" fill="#658280"/>
<path d="M1194.51 776.831H1184.58V788.703H1194.51V776.831Z" fill="#658280"/>
<path opacity="0.29" d="M1216.72 776.831H1206.79V788.703H1216.72V776.831Z" fill="#658280"/>
<path d="M1238.93 776.831H1229V788.703H1238.93V776.831Z" fill="#658280"/>
<path d="M1172.3 756.616H1162.38V768.488H1172.3V756.616Z" fill="#658280"/>
<path opacity="0.29" d="M1194.51 756.616H1184.58V768.488H1194.51V756.616Z" fill="#658280"/>
<path d="M1216.72 756.616H1206.79V768.488H1216.72V756.616Z" fill="#658280"/>
<path opacity="0.29" d="M1238.93 756.616H1229V768.488H1238.93V756.616Z" fill="#658280"/>
<path d="M1192.31 897.42H1159.81V905.139H1192.31V897.42Z" fill="#658280"/>
<path d="M1194.51 904.039H1157.6V905.357H1194.51V904.039Z" fill="#658280"/>
<path d="M1016.82 747.639H889.524V888.839L1016.82 903.86V747.639Z" fill="#658280"/>
<path d="M895.116 747.639H883.932V891.323H895.116V747.639Z" fill="#658280"/>
<path d="M926.938 747.639H915.754V895.373H926.938V747.639Z" fill="#658280"/>
<path d="M958.763 747.639H947.578V899.577H958.763V747.639Z" fill="#658280"/>
<path d="M990.585 747.639H979.4V903.004H990.585V747.639Z" fill="#658280"/>
<path d="M1022.41 747.639H1011.22V906.649H1022.41V747.639Z" fill="#658280"/>
<path opacity="0.29" d="M912.857 868.354H898.012V879.265H912.857V868.354Z" fill="#658280"/>
<path opacity="0.29" d="M944.68 868.354H929.835V879.265H944.68V868.354Z" fill="#658280"/>
<path d="M976.503 868.354H961.658V879.265H976.503V868.354Z" fill="#658280"/>
<path opacity="0.29" d="M1008.33 868.354H993.482V879.265H1008.33V868.354Z" fill="#658280"/>
<path d="M912.857 849.354H898.012V860.264H912.857V849.354Z" fill="#658280"/>
<path d="M944.68 849.354H929.835V860.264H944.68V849.354Z" fill="#658280"/>
<path opacity="0.29" d="M976.503 849.354H961.658V860.264H976.503V849.354Z" fill="#658280"/>
<path opacity="0.29" d="M1008.33 849.354H993.482V860.264H1008.33V849.354Z" fill="#658280"/>
<path opacity="0.29" d="M912.857 830.352H898.012V841.262H912.857V830.352Z" fill="#658280"/>
<path opacity="0.29" d="M944.68 830.352H929.835V841.262H944.68V830.352Z" fill="#658280"/>
<path opacity="0.29" d="M976.503 830.352H961.658V841.262H976.503V830.352Z" fill="#658280"/>
<path d="M1008.33 830.352H993.482V841.262H1008.33V830.352Z" fill="#658280"/>
<path opacity="0.29" d="M912.857 811.351H898.012V822.262H912.857V811.351Z" fill="#658280"/>
<path d="M944.68 811.351H929.835V822.262H944.68V811.351Z" fill="#658280"/>
<path opacity="0.29" d="M976.503 811.351H961.658V822.262H976.503V811.351Z" fill="#658280"/>
<path opacity="0.29" d="M1008.33 811.351H993.482V822.262H1008.33V811.351Z" fill="#658280"/>
<path opacity="0.29" d="M912.857 792.351H898.012V803.261H912.857V792.351Z" fill="#658280"/>
<path opacity="0.29" d="M944.68 792.351H929.835V803.261H944.68V792.351Z" fill="#658280"/>
<path d="M976.503 792.351H961.658V803.261H976.503V792.351Z" fill="#658280"/>
<path opacity="0.29" d="M1008.33 792.351H993.482V803.261H1008.33V792.351Z" fill="#658280"/>
<path d="M912.857 773.349H898.012V784.259H912.857V773.349Z" fill="#658280"/>
<path d="M944.68 773.349H929.835V784.259H944.68V773.349Z" fill="#658280"/>
<path opacity="0.29" d="M976.503 773.349H961.658V784.259H976.503V773.349Z" fill="#658280"/>
<path opacity="0.29" d="M1008.33 773.349H993.482V784.259H1008.33V773.349Z" fill="#658280"/>
<path opacity="0.29" d="M912.857 754.348H898.012V765.259H912.857V754.348Z" fill="#658280"/>
<path d="M944.68 754.348H929.835V765.259H944.68V754.348Z" fill="#658280"/>
<path opacity="0.29" d="M976.503 754.348H961.658V765.259H976.503V754.348Z" fill="#658280"/>
<path d="M1008.33 754.348H993.482V765.259H1008.33V754.348Z" fill="#658280"/>
<path d="M526.407 882.074V880.607H523.382V876.43H576.643V747.64H489.24V869.711V876.43V880.607H486.068V882.074H526.407Z" fill="#658280"/>
<path d="M750.17 747.64H675.305V823.574H750.17V747.64Z" fill="#658280"/>
<path d="M409.862 747.639H349.006V840.98H409.862V747.639Z" fill="#658280"/>
<path d="M464.126 747.639H397.808V821.531H464.126V747.639Z" fill="#658280"/>
<path d="M397.807 833.556H370.9V844.726H397.807V833.556Z" fill="#658280"/>
<path d="M473.053 820.017H402.359V822.749H473.053V820.017Z" fill="#658280"/>
<path d="M531.355 747.64H457.003V789.838H531.355V747.64Z" fill="#658280"/>
<path d="M277.178 747.64H216.697V824.164H277.178V747.64Z" fill="#658280"/>
<path d="M243.778 747.64H164.212V786.03H243.778V747.64Z" fill="#658280"/>
<path d="M126.367 747.64H76.5977V792.302H126.367V747.64Z" fill="#658280"/>
<path d="M234.336 747.64H116.706V761.629H234.336V747.64Z" fill="#658280"/>
<path d="M91.8289 747.64H31.5405V766.151H91.8289V747.64Z" fill="#658280"/>
<path d="M370.9 747.64H277.178V775.884H370.9V747.64Z" fill="#658280"/>
<path d="M698.091 747.64H552.102V759.806H698.091V747.64Z" fill="#658280"/>
<path d="M956.926 747.64H810.937V759.806H956.926V747.64Z" fill="#658280"/>
<path d="M692.407 795.525H636.919L613.453 753.722H692.407V795.525Z" fill="#658280"/>
<path d="M719.599 809.977H718.054V856.351H719.599V809.977Z" fill="#658280"/>
<path d="M727.845 813.294H725.784V840.658H727.845V813.294Z" fill="#658280"/>
<path d="M742.811 822.265H714.737V835.81H742.811V822.265Z" fill="#658280"/>
<path d="M747.178 835.648H709.997V836.861H747.178V835.648Z" fill="#658280"/>
<path d="M827.265 747.64H736.555V786.806H827.265V747.64Z" fill="#658280"/>
<path d="M868.196 754.352H809.917V829.923H868.196V754.352Z" fill="#658280"/>
<path d="M1130.63 747.64H1037.52V815.716H1130.63V747.64Z" fill="#658280"/>
<path d="M1114.48 747.64H1008.33V772.724H1114.48V747.64Z" fill="#658280"/>
<path d="M1194.51 747.64H1125.48V756.618H1194.51V747.64Z" fill="#658280"/>
<path d="M1344.04 747.64H1231.81V772.724H1344.04V747.64Z" fill="#658280"/>
<path d="M1276.52 838.396H1416.18V747.639H1276.52V838.396Z" fill="#658280"/>
<path d="M1272.91 841.878H1424.33V838.396H1272.91V841.878Z" fill="#658280"/>
<path d="M1348.62 851.326H1410V832.926H1348.62V851.326Z" fill="#658280"/>
<path d="M1318.27 851.326H1328.57V840.138H1318.27V851.326Z" fill="#658280"/>
<path d="M1296.62 851.326H1307.96V840.138H1296.62V851.326Z" fill="#658280"/>
<path d="M1512.19 880.186H1622.74V747.638H1512.19V880.186Z" fill="#658280"/>
<path d="M1509.05 882.465H1625.89V878.72H1509.05V882.465Z" fill="#658280"/>
<path d="M1515.91 887.261H1619.03V869.453H1515.91V887.261Z" fill="#658280"/>
<path d="M1570.3 894.547H1611.13V875.09H1570.3V894.547Z" fill="#658280"/>
<path d="M1587.5 889.065H1611.14V899.306H1594.19L1587.5 889.065Z" fill="#658280"/>
<path d="M1599.32 907.806H1601.61V884.993H1599.32V907.806Z" fill="#658280"/>
<path d="M1598.41 908.99C1598.41 908.337 1599.33 907.808 1600.46 907.808C1601.6 907.808 1602.52 908.337 1602.52 908.99C1602.52 909.643 1601.6 910.173 1600.46 910.173C1599.33 910.173 1598.41 909.643 1598.41 908.99Z" fill="#658280"/>
<path d="M1657.09 747.64H1607.61V802.359H1657.09V747.64Z" fill="#658280"/>
<path d="M1523.11 747.64H1466.68V829.037H1523.11V747.64Z" fill="#658280"/>
<path d="M1494.92 747.64H1415.44V791.175L1482.52 776.833L1494.92 747.64Z" fill="#658280"/>
<path d="M1762.22 747.64H1640.84V771.284H1762.22V747.64Z" fill="#658280"/>
<path d="M1787.89 747.64H1717.38V842.025H1787.89V747.64Z" fill="#658280"/>
<path d="M1888.21 747.64H1771.4V765.263H1888.21V747.64Z" fill="#658280"/>
<path d="M1791.12 840.656H1713.77V843.751H1791.12V840.656Z" fill="#658280"/>
<path d="M1778.44 838.048H1776.89V857.068H1778.44V838.048Z" fill="#658280"/>
<path d="M1768.13 839.402H1766.59V854.661H1768.13V839.402Z" fill="#658280"/>
<path d="M1814 806.467H1782.56V763.224H1827.4L1814 806.467Z" fill="#658280"/>
</g>
<g opacity="0.8">
<path d="M620.646 341.854H538.716V667.967H620.646V341.854Z" fill="#B5C3C2"/>
<path d="M607.259 318.475H552.104V455.517H607.259V318.475Z" fill="#B5C3C2"/>
<path d="M594.979 303.644H564.385V379.66H594.979V303.644Z" fill="#B5C3C2"/>
<path d="M590.106 342.706H569.256V290.903H576.778H584.231H590.106V342.706Z" fill="#B5C3C2"/>
<path d="M578.307 320.146H576.046V268.343H576.863H577.67H578.307V320.146Z" fill="#B5C3C2"/>
<path d="M583.316 302.239H581.055V250.436H581.87H582.68H583.316V302.239Z" fill="#B5C3C2"/>
<path d="M622.83 341.019H536.53V344.491H622.83V341.019Z" fill="#B5C3C2"/>
<path d="M609.272 316.804H550.091V320.148H609.272V316.804Z" fill="#B5C3C2"/>
<path d="M596.259 302.239H562.154V304.804H596.259V302.239Z" fill="#B5C3C2"/>
<path opacity="0.29" d="M559.739 324.036H557.176V338.396H559.739V324.036Z" fill="#B5C3C2"/>
<path opacity="0.29" d="M566.835 324.036H564.27V338.396H566.835V324.036Z" fill="#B5C3C2"/>
<path opacity="0.29" d="M573.93 324.036H571.365V338.396H573.93V324.036Z" fill="#B5C3C2"/>
<path opacity="0.29" d="M581.024 324.036H578.458V338.396H581.024V324.036Z" fill="#B5C3C2"/>
<path opacity="0.29" d="M588.119 324.036H585.553V338.396H588.119V324.036Z" fill="#B5C3C2"/>
<path opacity="0.29" d="M595.214 324.036H592.648V338.396H595.214V324.036Z" fill="#B5C3C2"/>
<path opacity="0.29" d="M602.309 324.036H599.743V338.396H602.309V324.036Z" fill="#B5C3C2"/>
<path d="M552.104 354.858H545.908V371.895H552.104V354.858Z" fill="#B5C3C2"/>
<path opacity="0.29" d="M564.373 354.858H558.177V371.895H564.373V354.858Z" fill="#B5C3C2"/>
<path d="M576.644 354.858H570.448V371.895H576.644V354.858Z" fill="#B5C3C2"/>
<path d="M588.913 354.858H582.717V371.895H588.913V354.858Z" fill="#B5C3C2"/>
<path d="M601.185 354.858H594.99V371.895H601.185V354.858Z" fill="#B5C3C2"/>
<path d="M613.454 354.858H607.259V371.895H613.454V354.858Z" fill="#B5C3C2"/>
<path d="M552.104 381.412H545.908V398.449H552.104V381.412Z" fill="#B5C3C2"/>
<path d="M564.373 381.412H558.177V398.449H564.373V381.412Z" fill="#B5C3C2"/>
<path d="M576.644 381.412H570.448V398.449H576.644V381.412Z" fill="#B5C3C2"/>
<path opacity="0.29" d="M588.913 381.412H582.717V398.449H588.913V381.412Z" fill="#B5C3C2"/>
<path d="M601.185 381.412H594.99V398.449H601.185V381.412Z" fill="#B5C3C2"/>
<path d="M613.454 381.412H607.259V398.449H613.454V381.412Z" fill="#B5C3C2"/>
<path d="M552.104 407.969H545.908V425.006H552.104V407.969Z" fill="#B5C3C2"/>
<path d="M564.373 407.969H558.177V425.006H564.373V407.969Z" fill="#B5C3C2"/>
<path d="M576.644 407.969H570.448V425.006H576.644V407.969Z" fill="#B5C3C2"/>
<path d="M588.913 407.969H582.717V425.006H588.913V407.969Z" fill="#B5C3C2"/>
<path opacity="0.29" d="M601.185 407.969H594.99V425.006H601.185V407.969Z" fill="#B5C3C2"/>
<path opacity="0.29" d="M613.454 407.969H607.259V425.006H613.454V407.969Z" fill="#B5C3C2"/>
<path opacity="0.29" d="M552.104 434.523H545.908V451.561H552.104V434.523Z" fill="#B5C3C2"/>
<path d="M564.373 434.523H558.177V451.561H564.373V434.523Z" fill="#B5C3C2"/>
<path d="M576.644 434.523H570.448V451.561H576.644V434.523Z" fill="#B5C3C2"/>
<path d="M588.913 434.523H582.717V451.561H588.913V434.523Z" fill="#B5C3C2"/>
<path d="M601.185 434.523H594.99V451.561H601.185V434.523Z" fill="#B5C3C2"/>
<path d="M613.454 434.523H607.259V451.561H613.454V434.523Z" fill="#B5C3C2"/>
<path d="M552.104 461.08H545.908V478.117H552.104V461.08Z" fill="#B5C3C2"/>
<path opacity="0.29" d="M564.373 461.08H558.177V478.117H564.373V461.08Z" fill="#B5C3C2"/>
<path d="M576.644 461.08H570.448V478.117H576.644V461.08Z" fill="#B5C3C2"/>
<path opacity="0.29" d="M588.913 461.08H582.717V478.117H588.913V461.08Z" fill="#B5C3C2"/>
<path d="M601.185 461.08H594.99V478.117H601.185V461.08Z" fill="#B5C3C2"/>
<path d="M613.454 461.08H607.259V478.117H613.454V461.08Z" fill="#B5C3C2"/>
<path d="M552.104 487.637H545.908V504.674H552.104V487.637Z" fill="#B5C3C2"/>
<path d="M564.373 487.637H558.177V504.674H564.373V487.637Z" fill="#B5C3C2"/>
<path d="M576.644 487.637H570.448V504.674H576.644V487.637Z" fill="#B5C3C2"/>
<path d="M588.913 487.637H582.717V504.674H588.913V487.637Z" fill="#B5C3C2"/>
<path d="M601.185 487.637H594.99V504.674H601.185V487.637Z" fill="#B5C3C2"/>
<path opacity="0.29" d="M613.454 487.637H607.259V504.674H613.454V487.637Z" fill="#B5C3C2"/>
<path d="M552.104 514.19H545.908V531.228H552.104V514.19Z" fill="#B5C3C2"/>
<path opacity="0.29" d="M564.373 514.19H558.177V531.228H564.373V514.19Z" fill="#B5C3C2"/>
<path opacity="0.29" d="M576.644 514.19H570.448V531.228H576.644V514.19Z" fill="#B5C3C2"/>
<path d="M588.913 514.19H582.717V531.228H588.913V514.19Z" fill="#B5C3C2"/>
<path d="M601.185 514.19H594.99V531.228H601.185V514.19Z" fill="#B5C3C2"/>
<path d="M613.454 514.19H607.259V531.228H613.454V514.19Z" fill="#B5C3C2"/>
<path d="M552.104 540.749H545.908V557.786H552.104V540.749Z" fill="#B5C3C2"/>
<path d="M564.373 540.749H558.177V557.786H564.373V540.749Z" fill="#B5C3C2"/>
<path d="M576.644 540.749H570.448V557.786H576.644V540.749Z" fill="#B5C3C2"/>
<path d="M588.913 540.749H582.717V557.786H588.913V540.749Z" fill="#B5C3C2"/>
<path opacity="0.29" d="M601.185 540.749H594.99V557.786H601.185V540.749Z" fill="#B5C3C2"/>
<path d="M613.454 540.749H607.259V557.786H613.454V540.749Z" fill="#B5C3C2"/>
<path d="M552.104 567.302H545.908V584.339H552.104V567.302Z" fill="#B5C3C2"/>
<path opacity="0.29" d="M564.373 567.302H558.177V584.339H564.373V567.302Z" fill="#B5C3C2"/>
<path d="M576.644 567.302H570.448V584.339H576.644V567.302Z" fill="#B5C3C2"/>
<path d="M588.913 567.302H582.717V584.339H588.913V567.302Z" fill="#B5C3C2"/>
<path d="M601.185 567.302H594.99V584.339H601.185V567.302Z" fill="#B5C3C2"/>
<path d="M613.454 567.302H607.259V584.339H613.454V567.302Z" fill="#B5C3C2"/>
<path d="M552.104 593.859H545.908V610.896H552.104V593.859Z" fill="#B5C3C2"/>
<path d="M564.373 593.859H558.177V610.896H564.373V593.859Z" fill="#B5C3C2"/>
<path d="M576.644 593.859H570.448V610.896H576.644V593.859Z" fill="#B5C3C2"/>
<path opacity="0.29" d="M588.913 593.859H582.717V610.896H588.913V593.859Z" fill="#B5C3C2"/>
<path d="M601.185 593.859H594.99V610.896H601.185V593.859Z" fill="#B5C3C2"/>
<path opacity="0.29" d="M613.454 593.859H607.259V610.896H613.454V593.859Z" fill="#B5C3C2"/>
<path opacity="0.29" d="M552.104 620.413H545.908V637.45H552.104V620.413Z" fill="#B5C3C2"/>
<path d="M564.373 620.413H558.177V637.45H564.373V620.413Z" fill="#B5C3C2"/>
<path opacity="0.29" d="M576.644 620.413H570.448V637.45H576.644V620.413Z" fill="#B5C3C2"/>
<path d="M588.913 620.413H582.717V637.45H588.913V620.413Z" fill="#B5C3C2"/>
<path d="M601.185 620.413H594.99V637.45H601.185V620.413Z" fill="#B5C3C2"/>
<path d="M613.454 620.413H607.259V637.45H613.454V620.413Z" fill="#B5C3C2"/>
<path d="M432.476 354.26H300.773V628.981H432.476V354.26Z" fill="#B5C3C2"/>
<path d="M436.219 349.534H297.031V357.299H436.219V349.534Z" fill="#B5C3C2"/>
<path d="M428.048 339.598H305.2V376.505H428.048V339.598Z" fill="#B5C3C2"/>
<path d="M363.252 324.495H314.604V364.82H363.252V324.495Z" fill="#B5C3C2"/>
<path d="M342.757 335.86H314.604V314.633H334.795L342.757 335.86Z" fill="#B5C3C2"/>
<path d="M328.681 297.014H325.951V344.296H328.681V297.014Z" fill="#B5C3C2"/>
<path d="M329.766 294.562C329.766 295.914 328.668 297.012 327.314 297.012C325.961 297.012 324.862 295.914 324.862 294.562C324.862 293.209 325.959 292.11 327.314 292.11C328.668 292.112 329.766 293.209 329.766 294.562Z" fill="#B5C3C2"/>
<path d="M1523.11 649.893H1378.94L1360.95 245.979L1523.11 279.639V649.893Z" fill="#B5C3C2"/>
<path d="M894.133 419.222V284.184H871.522V248.012H863.445V194.96H818.943V155.971H814.982V194.96H806.263V146.154H802.305V194.96H774.17V284.184H759.638V419.222H747.18V665.184H902.892V419.222H894.133Z" fill="#B5C3C2"/>
<path d="M1839.23 644.885H116.708V685.853H1839.23V644.885Z" fill="#B5C3C2"/>
<path d="M1130.64 675.816H1054.36L1084.08 523.077H1130.64V675.816Z" fill="#95A9A7"/>
<path d="M1863.48 681.764H54.9058V746.362H1863.48V681.764Z" fill="#95A9A7"/>
<path d="M1068.13 393.172V325.49H1043.64V299.722H1030.53V278.075H1025.94V240.971H1024.75V278.075H1020.15V299.722H1007.05V325.49H982.742V393.172H977.69V516.053H940.008V656.131H977.69H1015.37H1072.99V393.172H1068.13Z" fill="#95A9A7"/>
<path d="M1208.88 470.92H1090.34V473.076H1095.7V673.525H1203.52V473.076H1208.88V470.92Z" fill="#95A9A7"/>
<path d="M668.317 520.849H563.214V687.826H668.317V520.849Z" fill="#95A9A7"/>
<path d="M547.384 606.4H366.624V687.826H547.384V606.4Z" fill="#95A9A7"/>
<path d="M503.193 424.477H463.511V624.437H503.193V424.477Z" fill="#95A9A7"/>
<path d="M474.333 371.137H472.272V479.878H474.333V371.137Z" fill="#95A9A7"/>
<path d="M481.033 379.382H478.973V488.123H481.033V379.382Z" fill="#95A9A7"/>
<path d="M490.827 412.108H466.572V438.906H490.827V412.108Z" fill="#95A9A7"/>
<path d="M609.358 550.74H540.3V687.825H609.358V550.74Z" fill="#95A9A7"/>
<path d="M814.986 405.669H685.354V687.825H814.986V405.669Z" fill="#95A9A7"/>
<path d="M802.25 395.972H698.09V442.967H802.25V395.972Z" fill="#95A9A7"/>
<path d="M825.034 411.572H675.305V414.872H825.034V411.572Z" fill="#95A9A7"/>
<path d="M722.949 545.33H661.868V687.827H722.949V545.33Z" fill="#95A9A7"/>
<path d="M294.473 539.917H224.384V687.826H294.473V539.917Z" fill="#95A9A7"/>
<path d="M386.723 499.718H247.061V687.825H386.723V499.718Z" fill="#95A9A7"/>
<path d="M390.331 492.504H238.912V499.72H390.331V492.504Z" fill="#95A9A7"/>
<path d="M314.621 472.918H253.244V511.055H314.621V472.918Z" fill="#95A9A7"/>
<path d="M344.977 472.918H334.67V496.111H344.977V472.918Z" fill="#95A9A7"/>
<path d="M366.623 472.918H355.285V496.111H366.623V472.918Z" fill="#95A9A7"/>
<path d="M259.428 630.62H186.248V687.826H259.428V630.62Z" fill="#95A9A7"/>
<path d="M193.258 606.4H158.605V687.826H193.258V606.4Z" fill="#95A9A7"/>
<path d="M175.933 659.224H116.708V687.827H175.933V659.224Z" fill="#95A9A7"/>
<path d="M1532.03 624.436H802.252V687.825H1532.03V624.436Z" fill="#95A9A7"/>
<path d="M1473.75 448.965C1469.16 448.965 1465.39 452.5 1465.02 456.998L1454.75 456.663C1454.77 455.658 1454.79 454.65 1454.79 453.64C1454.79 440.857 1452.58 428.413 1448.35 416.742L1456.94 413.583C1458.28 416.694 1461.38 418.87 1464.98 418.87C1469.83 418.87 1473.75 414.943 1473.75 410.101C1473.75 405.258 1469.83 401.331 1464.98 401.331C1460.14 401.331 1456.22 405.258 1456.22 410.101C1456.22 410.995 1456.35 411.857 1456.6 412.67L1448.02 415.828C1443.13 402.717 1435.68 390.601 1425.91 380.106L1432.63 373.816C1434.2 375.32 1436.33 376.245 1438.69 376.245C1443.53 376.245 1447.45 372.319 1447.45 367.476C1447.45 362.633 1443.53 358.707 1438.69 358.707C1433.84 358.707 1429.92 362.633 1429.92 367.476C1429.92 369.62 1430.69 371.583 1431.96 373.108L1425.25 379.401C1424.56 378.671 1423.86 377.947 1423.14 377.233C1412.97 367.066 1401.14 359.175 1388.25 353.815L1391.95 344.823C1392.78 345.089 1393.68 345.233 1394.6 345.233C1399.44 345.233 1403.37 341.307 1403.37 336.464C1403.37 331.621 1399.44 327.695 1394.6 327.695C1389.76 327.695 1385.83 331.621 1385.83 336.464C1385.83 340.037 1387.97 343.11 1391.04 344.476L1387.35 353.448C1375.82 348.776 1363.47 346.117 1350.73 345.657L1351.13 333.365C1351.22 333.367 1351.31 333.371 1351.4 333.371C1356.25 333.371 1360.17 329.445 1360.17 324.602C1360.17 319.759 1356.25 315.833 1351.4 315.833C1346.56 315.833 1342.64 319.759 1342.64 324.602C1342.64 329.021 1345.9 332.673 1350.15 333.282L1349.75 345.626C1348.75 345.598 1347.74 345.584 1346.73 345.584C1334.46 345.584 1322.51 347.616 1311.25 351.516L1307.71 341.483C1310.9 340.171 1313.15 337.034 1313.15 333.371C1313.15 328.528 1309.22 324.602 1304.38 324.602C1299.54 324.602 1295.61 328.528 1295.61 333.371C1295.61 338.214 1299.53 342.14 1304.38 342.14C1305.22 342.14 1306.03 342.021 1306.79 341.802L1310.33 351.836C1296.67 356.707 1284.07 364.343 1273.19 374.456L1266.79 367.618C1268.22 366.056 1269.1 363.976 1269.1 361.688C1269.1 356.845 1265.17 352.919 1260.33 352.919C1255.48 352.919 1251.56 356.845 1251.56 361.688C1251.56 366.531 1255.48 370.457 1260.33 370.457C1262.53 370.457 1264.55 369.64 1266.09 368.295L1272.49 375.124C1271.76 375.815 1271.03 376.517 1270.32 377.231C1261.28 386.274 1254.04 396.637 1248.77 407.886L1240.62 404.124C1240.92 403.246 1241.08 402.307 1241.08 401.329C1241.08 396.487 1237.15 392.56 1232.31 392.56C1227.47 392.56 1223.54 396.487 1223.54 401.329C1223.54 406.172 1227.47 410.099 1232.31 410.099C1235.83 410.099 1238.87 408.022 1240.26 405.029L1248.36 408.766C1242.55 421.49 1239.25 435.321 1238.73 449.642L1228.28 449.302C1228.15 444.57 1224.28 440.776 1219.52 440.776C1214.67 440.776 1210.75 444.702 1210.75 449.545C1210.75 454.388 1214.67 458.314 1219.52 458.314C1224.11 458.314 1227.88 454.775 1228.25 450.275L1238.7 450.616C1238.68 451.622 1238.66 452.63 1238.66 453.64C1238.66 466.422 1240.87 478.866 1245.1 490.537L1236.52 493.697C1235.17 490.586 1232.07 488.41 1228.47 488.41C1223.62 488.41 1219.7 492.336 1219.7 497.179C1219.7 502.022 1223.62 505.948 1228.47 505.948C1233.31 505.948 1237.24 502.022 1237.24 497.179C1237.24 496.284 1237.1 495.423 1236.85 494.609L1245.43 491.45C1250.32 504.561 1257.77 516.676 1267.54 527.171L1260.82 533.462C1259.25 531.959 1257.12 531.032 1254.77 531.032C1249.92 531.032 1246 534.958 1246 539.801C1246 544.644 1249.92 548.57 1254.77 548.57C1259.61 548.57 1263.54 544.644 1263.54 539.801C1263.54 537.658 1262.77 535.695 1261.49 534.169L1268.21 527.879C1268.9 528.609 1269.6 529.333 1270.31 530.047C1277.16 536.893 1284.76 542.707 1292.94 547.412L1240.06 644.88H1230.57V647.667H1225.92V653.201H1467.53V647.667H1462.88V644.88H1453.39L1400.51 547.412C1407.55 543.356 1414.17 538.477 1420.25 532.823L1428.82 541.967C1426.98 543.575 1425.82 545.936 1425.82 548.572C1425.82 553.415 1429.75 557.341 1434.59 557.341C1439.43 557.341 1443.36 553.415 1443.36 548.572C1443.36 543.729 1439.43 539.803 1434.59 539.803C1432.73 539.803 1431.01 540.381 1429.59 541.367L1420.96 532.158C1421.69 531.466 1422.42 530.764 1423.13 530.051C1432.18 521.008 1439.42 510.645 1444.68 499.395L1454.22 503.8C1454.05 504.488 1453.96 505.208 1453.96 505.948C1453.96 510.791 1457.88 514.717 1462.73 514.717C1467.57 514.717 1471.5 510.791 1471.5 505.948C1471.5 501.105 1467.57 497.179 1462.73 497.179C1458.97 497.179 1455.76 499.541 1454.52 502.863L1445.09 498.511C1450.9 485.787 1454.2 471.957 1454.71 457.635L1464.99 457.969C1465.11 462.703 1468.99 466.501 1473.75 466.501C1478.59 466.501 1482.52 462.575 1482.52 457.732C1482.52 452.889 1478.6 448.965 1473.75 448.965ZM1451.87 453.642C1451.87 454.619 1451.85 455.597 1451.82 456.57L1421.57 455.587C1421.59 454.94 1421.59 454.291 1421.59 453.642C1421.59 444.725 1420.02 436.168 1417.15 428.231L1445.61 417.754C1449.72 429.107 1451.87 441.208 1451.87 453.642ZM1420.11 455.54L1352.61 453.346C1352.59 452.906 1352.52 452.478 1352.41 452.068L1415.78 428.736C1418.59 436.515 1420.13 444.901 1420.13 453.642C1420.13 454.276 1420.12 454.909 1420.11 455.54ZM1273.34 451.743L1340.84 453.938C1340.86 454.378 1340.93 454.806 1341.05 455.215L1277.67 478.548C1274.86 470.768 1273.32 462.382 1273.32 453.642C1273.32 453.007 1273.33 452.374 1273.34 451.743ZM1351.35 449.979L1400.59 403.832C1406.98 410.735 1412.06 418.864 1415.44 427.823L1352.07 451.153C1351.87 450.734 1351.63 450.34 1351.35 449.979ZM1350.68 449.267C1350.3 448.923 1349.87 448.626 1349.41 448.391L1375.06 385.927C1384.52 389.898 1392.97 395.793 1399.93 403.118L1350.68 449.267ZM1348.51 448.02C1348.15 447.908 1347.78 447.829 1347.4 447.785L1349.6 380.297C1358.25 380.632 1366.52 382.469 1374.16 385.558L1348.51 448.02ZM1346.43 447.752C1346.02 447.773 1345.62 447.836 1345.23 447.937L1322.78 384.248C1330.29 381.65 1338.35 380.234 1346.73 380.234C1347.36 380.234 1347.99 380.242 1348.62 380.258L1346.43 447.752ZM1344.31 448.261C1343.86 448.462 1343.44 448.72 1343.06 449.022L1296.92 399.774C1304.06 393.159 1312.53 387.945 1321.86 384.574L1344.31 448.261ZM1342.35 449.687C1342.06 450.008 1341.81 450.36 1341.6 450.738L1280.29 422.439C1284.21 414.14 1289.63 406.687 1296.21 400.439L1342.35 449.687ZM1341.18 451.62C1341.03 452.046 1340.92 452.496 1340.87 452.962L1273.38 450.768C1273.76 441.015 1276.04 431.741 1279.88 423.317L1341.18 451.62ZM1341.38 456.128C1341.54 456.467 1341.73 456.789 1341.95 457.089L1341.54 457.829L1292.86 503.449C1286.47 496.546 1281.39 488.418 1278.01 479.458L1341.38 456.128ZM1340.07 460.545L1309.5 516.885C1303.6 513.397 1298.22 509.107 1293.52 504.163L1340.07 460.545ZM1343.39 458.505C1343.6 458.647 1343.82 458.775 1344.04 458.89L1318.39 521.355C1315.92 520.316 1313.52 519.146 1311.19 517.854L1343.39 458.505ZM1344.94 459.263C1345.3 459.375 1345.67 459.454 1346.05 459.499L1343.85 526.986C1335.2 526.652 1326.93 524.814 1319.29 521.726L1344.94 459.263ZM1346.73 527.047C1346.09 527.047 1345.46 527.039 1344.83 527.023L1347.02 459.529C1347.43 459.509 1347.83 459.446 1348.22 459.344L1370.67 523.034C1363.16 525.632 1355.11 527.047 1346.73 527.047ZM1349.14 459.02C1349.46 458.874 1349.77 458.704 1350.06 458.505L1382.26 517.854C1378.86 519.744 1375.29 521.373 1371.58 522.709L1349.14 459.02ZM1354.56 462.711L1396.54 507.511C1392.7 511.065 1388.48 514.212 1383.95 516.887L1354.56 462.711ZM1352.72 459.326L1351.51 457.089C1351.63 456.915 1351.75 456.734 1351.86 456.546L1413.16 484.844C1409.24 493.143 1403.82 500.596 1397.25 506.844L1352.72 459.326ZM1352.27 455.664C1352.42 455.236 1352.53 454.785 1352.58 454.321L1420.07 456.515C1419.69 466.27 1417.41 475.542 1413.57 483.966L1352.27 455.664ZM1317.84 522.707L1306.31 550.765C1302.8 549.302 1299.37 547.648 1296.03 545.806L1310.5 519.14C1312.87 520.456 1315.32 521.651 1317.84 522.707ZM1318.74 523.076C1326.53 526.23 1334.98 528.106 1343.81 528.447L1342.82 558.708C1330.44 558.26 1318.43 555.674 1307.22 551.132L1318.74 523.076ZM1344.78 528.483C1345.43 528.499 1346.07 528.507 1346.73 528.507C1355.28 528.507 1363.49 527.063 1371.15 524.411L1381.23 553.01C1370.28 556.802 1358.66 558.777 1346.73 558.777C1345.75 558.777 1344.77 558.763 1343.8 558.737L1344.78 528.483ZM1372.07 524.088C1375.85 522.725 1379.48 521.065 1382.95 519.14L1397.42 545.806C1392.52 548.512 1387.42 550.813 1382.15 552.691L1372.07 524.088ZM1445.27 416.84L1416.81 427.318C1413.37 418.174 1408.18 409.879 1401.66 402.834L1423.78 382.108C1433.27 392.313 1440.52 404.092 1445.27 416.84ZM1421.07 379.297C1421.76 379.989 1422.44 380.69 1423.11 381.398L1401 402.122C1393.89 394.643 1385.27 388.628 1375.62 384.576L1387.14 356.519C1399.67 361.733 1411.18 369.409 1421.07 379.297ZM1386.23 356.15L1374.71 384.207C1366.92 381.053 1358.47 379.178 1349.64 378.837L1350.63 348.573C1363.01 349.021 1375.02 351.607 1386.23 356.15ZM1346.73 348.502C1347.7 348.502 1348.68 348.516 1349.65 348.543L1348.67 378.798C1348.02 378.782 1347.38 378.774 1346.73 378.774C1338.18 378.774 1329.96 380.218 1322.3 382.871L1312.22 354.272C1323.17 350.477 1334.79 348.502 1346.73 348.502ZM1311.3 354.592L1321.38 383.193C1311.85 386.632 1303.21 391.954 1295.92 398.705L1275.19 376.586C1285.76 366.754 1298.02 359.332 1311.3 354.592ZM1272.38 379.297C1273.07 378.606 1273.77 377.926 1274.48 377.255L1295.21 399.37C1288.49 405.746 1282.96 413.353 1278.97 421.824L1251.42 409.111C1256.54 398.17 1263.59 388.091 1272.38 379.297ZM1251.01 409.995L1278.55 422.709C1274.64 431.305 1272.31 440.768 1271.92 450.723L1241.66 449.74C1242.16 435.816 1245.36 422.366 1251.01 409.995ZM1241.59 453.642C1241.59 452.664 1241.6 451.687 1241.63 450.713L1271.88 451.697C1271.87 452.344 1271.86 452.991 1271.86 453.642C1271.86 462.559 1273.43 471.115 1276.3 479.052L1247.84 489.529C1243.73 478.176 1241.59 466.073 1241.59 453.642ZM1248.18 490.444L1276.64 479.965C1280.09 489.109 1285.27 497.404 1291.79 504.449L1269.67 525.175C1260.18 514.97 1252.93 503.192 1248.18 490.444ZM1272.38 527.986C1271.69 527.295 1271.01 526.593 1270.34 525.887L1292.45 505.163C1297.26 510.221 1302.76 514.607 1308.81 518.173L1294.33 544.849C1286.4 540.276 1279.03 534.632 1272.38 527.986ZM1451.18 644.886H1242.28L1294.63 548.378C1298.07 550.27 1301.59 551.969 1305.2 553.472L1301.51 562.464C1300.67 562.198 1299.78 562.054 1298.85 562.054C1294.01 562.054 1290.08 565.981 1290.08 570.824C1290.08 575.666 1294.01 579.593 1298.85 579.593C1303.7 579.593 1307.62 575.666 1307.62 570.824C1307.62 567.25 1305.49 564.178 1302.42 562.811L1306.1 553.839C1317.63 558.512 1329.99 561.17 1342.73 561.631L1342.43 570.828C1337.68 570.935 1333.86 574.817 1333.86 579.593C1333.86 584.436 1337.79 588.362 1342.64 588.362C1347.48 588.362 1351.4 584.436 1351.4 579.593C1351.4 575.009 1347.89 571.249 1343.41 570.858L1343.7 561.661C1344.71 561.689 1345.72 561.704 1346.73 561.704C1358.99 561.704 1370.95 559.672 1382.21 555.772L1385.36 564.713C1382.38 566.113 1380.31 569.142 1380.31 572.657C1380.31 577.5 1384.23 581.426 1389.08 581.426C1393.92 581.426 1397.85 577.5 1397.85 572.657C1397.85 567.814 1393.92 563.888 1389.08 563.888C1388.09 563.888 1387.15 564.052 1386.26 564.352L1383.13 555.451C1388.53 553.521 1393.78 551.158 1398.82 548.38L1451.18 644.886ZM1399.12 544.847L1384.65 518.171C1389.29 515.435 1393.6 512.212 1397.53 508.576L1418.26 530.696C1412.37 536.177 1405.95 540.911 1399.12 544.847ZM1421.07 527.986C1420.38 528.678 1419.68 529.357 1418.97 530.028L1398.24 507.913C1404.96 501.537 1410.49 493.93 1414.48 485.459L1442.03 498.173C1436.91 509.112 1429.87 519.191 1421.07 527.986ZM1442.44 497.288L1414.9 484.575C1418.81 475.978 1421.14 466.513 1421.53 456.56L1451.79 457.544C1451.29 471.468 1448.09 484.917 1442.44 497.288Z" fill="#95A9A7"/>
<path d="M1607.61 522.71H1494.92V687.826H1607.61V522.71Z" fill="#95A9A7"/>
<path d="M1703.81 586.905H1591.12V686.894H1703.81V586.905Z" fill="#95A9A7"/>
<path d="M1217.31 572.222H1154.09V656.13H1217.31V572.222Z" fill="#95A9A7"/>
<path d="M1630.97 365.686H1551.27V687.825H1630.97V365.686Z" fill="#95A9A7"/>
<path d="M1762.22 687.825H1657.09V499.72H1736.8L1762.22 687.825Z" fill="#95A9A7"/>
<path d="M1808.26 644.885H1716.18V687.826H1808.26V644.885Z" fill="#95A9A7"/>
<path d="M1613.11 298.386H1610.36V385.927H1613.11V298.386Z" fill="#95A9A7"/>
<path d="M1622.39 317.172H1619.64V404.713H1622.39V317.172Z" fill="#95A9A7"/>
<path d="M1604.69 329.256H1601.94V416.797H1604.69V329.256Z" fill="#95A9A7"/>
<path d="M1698.83 484.515H1661.21V514.148H1698.83V484.515Z" fill="#95A9A7"/>
<path d="M1694.71 473.952H1665.33V490.608H1694.71V473.952Z" fill="#95A9A7"/>
<path d="M1720.99 493.195H1713.78V505.161H1720.99V493.195Z" fill="#95A9A7"/>
<path d="M1733.85 482.279H1723.54V505.161H1733.85V482.279Z" fill="#95A9A7"/>
<path d="M1249.33 438.353H1153.78V746.363H1249.33V438.353Z" fill="#658280"/>
<path d="M1256.47 440.177H1146.64V443.298H1256.47V440.177Z" fill="#658280"/>
<path d="M1253.5 483.444H1149.61V486.555H1253.5V483.444Z" fill="#658280"/>
<path d="M1253.5 525.342H1149.61V528.453H1253.5V525.342Z" fill="#658280"/>
<path d="M1253.5 567.244H1149.61V570.355H1253.5V567.244Z" fill="#658280"/>
<path d="M1253.5 609.145H1149.61V612.256H1253.5V609.145Z" fill="#658280"/>
<path d="M1253.5 651.044H1149.61V654.155H1253.5V651.044Z" fill="#658280"/>
<path d="M1253.5 692.946H1149.61V696.057H1253.5V692.946Z" fill="#658280"/>
<path d="M1260.11 431.669H1143V440.178H1260.11V431.669Z" fill="#658280"/>
<path opacity="0.29" d="M1172.31 453.416H1162.38V478.021H1172.31V453.416Z" fill="#658280"/>
<path d="M1194.51 453.416H1184.58V478.021H1194.51V453.416Z" fill="#658280"/>
<path d="M1216.72 453.416H1206.79V478.021H1216.72V453.416Z" fill="#658280"/>
<path d="M1238.93 453.416H1229V478.021H1238.93V453.416Z" fill="#658280"/>
<path d="M1172.31 493.645H1162.38V518.251H1172.31V493.645Z" fill="#658280"/>
<path opacity="0.29" d="M1194.51 493.645H1184.58V518.251H1194.51V493.645Z" fill="#658280"/>
<path d="M1216.72 493.645H1206.79V518.251H1216.72V493.645Z" fill="#658280"/>
<path d="M1238.93 493.645H1229V518.251H1238.93V493.645Z" fill="#658280"/>
<path d="M1172.31 535.546H1162.38V560.152H1172.31V535.546Z" fill="#658280"/>
<path d="M1194.51 535.546H1184.58V560.152H1194.51V535.546Z" fill="#658280"/>
<path d="M1216.72 535.546H1206.79V560.152H1216.72V535.546Z" fill="#658280"/>
<path opacity="0.29" d="M1238.93 535.546H1229V560.152H1238.93V535.546Z" fill="#658280"/>
<path d="M1172.31 577.446H1162.38V602.052H1172.31V577.446Z" fill="#658280"/>
<path opacity="0.29" d="M1194.51 577.446H1184.58V602.052H1194.51V577.446Z" fill="#658280"/>
<path opacity="0.29" d="M1216.72 577.446H1206.79V602.052H1216.72V577.446Z" fill="#658280"/>
<path d="M1238.93 577.446H1229V602.052H1238.93V577.446Z" fill="#658280"/>
<path opacity="0.29" d="M1172.31 619.348H1162.38V643.953H1172.31V619.348Z" fill="#658280"/>
<path d="M1194.51 619.348H1184.58V643.953H1194.51V619.348Z" fill="#658280"/>
<path d="M1216.72 619.348H1206.79V643.953H1216.72V619.348Z" fill="#658280"/>
<path d="M1238.93 619.348H1229V643.953H1238.93V619.348Z" fill="#658280"/>
<path d="M1172.31 661.249H1162.38V685.855H1172.31V661.249Z" fill="#658280"/>
<path d="M1194.51 661.249H1184.58V685.855H1194.51V661.249Z" fill="#658280"/>
<path opacity="0.29" d="M1216.72 661.249H1206.79V685.855H1216.72V661.249Z" fill="#658280"/>
<path d="M1238.93 661.249H1229V685.855H1238.93V661.249Z" fill="#658280"/>
<path d="M1172.31 703.149H1162.38V727.755H1172.31V703.149Z" fill="#658280"/>
<path opacity="0.29" d="M1194.51 703.149H1184.58V727.755H1194.51V703.149Z" fill="#658280"/>
<path d="M1216.72 703.149H1206.79V727.755H1216.72V703.149Z" fill="#658280"/>
<path opacity="0.29" d="M1238.93 703.149H1229V727.755H1238.93V703.149Z" fill="#658280"/>
<path d="M1192.31 419.927H1159.81V435.924H1192.31V419.927Z" fill="#658280"/>
<path d="M1194.51 419.47H1157.6V422.204H1194.51V419.47Z" fill="#658280"/>
<path d="M1016.82 746.364H889.524V453.711L1016.82 422.575V746.364Z" fill="#658280"/>
<path d="M895.116 448.56H883.932V746.364H895.116V448.56Z" fill="#658280"/>
<path d="M926.938 440.167H915.754V746.363H926.938V440.167Z" fill="#658280"/>
<path d="M958.763 431.452H947.578V746.364H958.763V431.452Z" fill="#658280"/>
<path d="M990.585 424.349H979.4V746.363H990.585V424.349Z" fill="#658280"/>
<path d="M1022.41 416.797H1011.22V746.363H1022.41V416.797Z" fill="#658280"/>
<path opacity="0.29" d="M912.857 473.551H898.012V496.167H912.857V473.551Z" fill="#658280"/>
<path opacity="0.29" d="M944.68 473.551H929.835V496.167H944.68V473.551Z" fill="#658280"/>
<path d="M976.503 473.551H961.658V496.167H976.503V473.551Z" fill="#658280"/>
<path opacity="0.29" d="M1008.33 473.551H993.482V496.167H1008.33V473.551Z" fill="#658280"/>
<path d="M912.857 512.933H898.012V535.549H912.857V512.933Z" fill="#658280"/>
<path d="M944.68 512.933H929.835V535.549H944.68V512.933Z" fill="#658280"/>
<path opacity="0.29" d="M976.503 512.933H961.658V535.549H976.503V512.933Z" fill="#658280"/>
<path opacity="0.29" d="M1008.33 512.933H993.482V535.549H1008.33V512.933Z" fill="#658280"/>
<path opacity="0.29" d="M912.857 552.315H898.012V574.931H912.857V552.315Z" fill="#658280"/>
<path opacity="0.29" d="M944.68 552.315H929.835V574.931H944.68V552.315Z" fill="#658280"/>
<path opacity="0.29" d="M976.503 552.315H961.658V574.931H976.503V552.315Z" fill="#658280"/>
<path d="M1008.33 552.315H993.482V574.931H1008.33V552.315Z" fill="#658280"/>
<path opacity="0.29" d="M912.857 591.696H898.012V614.312H912.857V591.696Z" fill="#658280"/>
<path d="M944.68 591.696H929.835V614.312H944.68V591.696Z" fill="#658280"/>
<path opacity="0.29" d="M976.503 591.696H961.658V614.312H976.503V591.696Z" fill="#658280"/>
<path opacity="0.29" d="M1008.33 591.696H993.482V614.312H1008.33V591.696Z" fill="#658280"/>
<path opacity="0.29" d="M912.857 631.076H898.012V653.692H912.857V631.076Z" fill="#658280"/>
<path opacity="0.29" d="M944.68 631.076H929.835V653.692H944.68V631.076Z" fill="#658280"/>
<path d="M976.503 631.076H961.658V653.692H976.503V631.076Z" fill="#658280"/>
<path opacity="0.29" d="M1008.33 631.076H993.482V653.692H1008.33V631.076Z" fill="#658280"/>
<path d="M912.857 670.458H898.012V693.074H912.857V670.458Z" fill="#658280"/>
<path d="M944.68 670.458H929.835V693.074H944.68V670.458Z" fill="#658280"/>
<path opacity="0.29" d="M976.503 670.458H961.658V693.074H976.503V670.458Z" fill="#658280"/>
<path opacity="0.29" d="M1008.33 670.458H993.482V693.074H1008.33V670.458Z" fill="#658280"/>
<path opacity="0.29" d="M912.857 709.837H898.012V732.453H912.857V709.837Z" fill="#658280"/>
<path d="M944.68 709.837H929.835V732.453H944.68V709.837Z" fill="#658280"/>
<path opacity="0.29" d="M976.503 709.837H961.658V732.453H976.503V709.837Z" fill="#658280"/>
<path d="M1008.33 709.837H993.482V732.453H1008.33V709.837Z" fill="#658280"/>
<path d="M526.408 467.73V470.768H523.382V479.428H576.643V746.363H489.241V493.354V479.428V470.768H486.069V467.73H526.408Z" fill="#658280"/>
<path d="M750.171 588.981H675.305V746.364H750.171V588.981Z" fill="#658280"/>
<path d="M409.863 552.904H349.006V746.365H409.863V552.904Z" fill="#658280"/>
<path d="M464.126 593.212H397.809V746.365H464.126V593.212Z" fill="#658280"/>
<path d="M397.808 545.138H370.9V568.289H397.808V545.138Z" fill="#658280"/>
<path d="M473.054 590.688H402.36V596.351H473.054V590.688Z" fill="#658280"/>
<path d="M531.356 658.9H457.004V746.363H531.356V658.9Z" fill="#658280"/>
<path d="M277.178 587.757H216.697V746.363H277.178V587.757Z" fill="#658280"/>
<path d="M243.78 666.798H164.213V746.364H243.78V666.798Z" fill="#658280"/>
<path d="M126.368 653.794H76.5991V746.365H126.368V653.794Z" fill="#658280"/>
<path d="M234.338 717.366H116.708V746.362H234.338V717.366Z" fill="#658280"/>
<path d="M91.8299 707.995H31.5415V746.363H91.8299V707.995Z" fill="#658280"/>
<path d="M370.901 687.825H277.179V746.363H370.901V687.825Z" fill="#658280"/>
<path d="M698.093 721.146H552.103V746.364H698.093V721.146Z" fill="#658280"/>
<path d="M956.927 721.146H810.938V746.364H956.927V721.146Z" fill="#658280"/>
<path d="M692.408 647.114H636.92L613.454 733.756H692.408V647.114Z" fill="#658280"/>
<path d="M719.599 521.047H718.054V617.162H719.599V521.047Z" fill="#658280"/>
<path d="M727.846 553.572H725.785V610.285H727.846V553.572Z" fill="#658280"/>
<path d="M742.812 563.623H714.738V591.696H742.812V563.623Z" fill="#658280"/>
<path d="M747.179 561.44H709.998V563.955H747.179V561.44Z" fill="#658280"/>
<path d="M827.266 665.183H736.556V746.359H827.266V665.183Z" fill="#658280"/>
<path d="M868.197 575.823H809.918V732.456H868.197V575.823Z" fill="#658280"/>
<path d="M1130.63 605.268H1037.52V746.362H1130.63V605.268Z" fill="#658280"/>
<path d="M1114.48 694.373H1008.33V746.363H1114.48V694.373Z" fill="#658280"/>
<path d="M1194.51 727.755H1125.48V746.364H1194.51V727.755Z" fill="#658280"/>
<path d="M1344.05 694.373H1231.81V746.363H1344.05V694.373Z" fill="#658280"/>
<path d="M1276.52 746.363H1416.18V558.256H1276.52V746.363Z" fill="#658280"/>
<path d="M1272.91 558.258H1424.33V551.043H1272.91V558.258Z" fill="#658280"/>
<path d="M1348.62 569.594H1410V531.458H1348.62V569.594Z" fill="#658280"/>
<path d="M1318.27 554.647H1328.57V531.455H1318.27V554.647Z" fill="#658280"/>
<path d="M1296.62 554.647H1307.96V531.455H1296.62V554.647Z" fill="#658280"/>
<path d="M1512.19 746.363H1622.75V471.642H1512.19V746.363Z" fill="#658280"/>
<path d="M1509.05 474.683H1625.89V466.917H1509.05V474.683Z" fill="#658280"/>
<path d="M1515.91 493.887H1619.03V456.979H1515.91V493.887Z" fill="#658280"/>
<path d="M1570.3 482.204H1611.14V441.879H1570.3V482.204Z" fill="#658280"/>
<path d="M1587.51 453.244H1611.14V432.015H1594.19L1587.51 453.244Z" fill="#658280"/>
<path d="M1599.32 461.679H1601.61V414.396H1599.32V461.679Z" fill="#658280"/>
<path d="M1598.41 411.946C1598.41 413.299 1599.33 414.396 1600.47 414.396C1601.6 414.396 1602.52 413.299 1602.52 411.946C1602.52 410.591 1601.6 409.494 1600.47 409.494C1599.33 409.494 1598.41 410.591 1598.41 411.946Z" fill="#658280"/>
<path d="M1657.09 632.952H1607.61V746.363H1657.09V632.952Z" fill="#658280"/>
<path d="M1523.11 577.659H1466.68V746.364H1523.11V577.659Z" fill="#658280"/>
<path d="M1494.92 746.363H1415.44V656.131L1482.52 685.853L1494.92 746.363Z" fill="#658280"/>
<path d="M1762.22 697.358H1640.84V746.363H1762.22V697.358Z" fill="#658280"/>
<path d="M1787.89 550.74H1717.38V746.363H1787.89V550.74Z" fill="#658280"/>
<path d="M1888.21 709.837H1771.4V746.362H1888.21V709.837Z" fill="#658280"/>
<path d="M1791.12 547.159H1713.78V553.572H1791.12V547.159Z" fill="#658280"/>
<path d="M1778.44 519.557H1776.89V558.979H1778.44V519.557Z" fill="#658280"/>
<path d="M1768.13 524.546H1766.59V556.171H1768.13V524.546Z" fill="#658280"/>
<path d="M1814 624.436H1782.57V714.063H1827.4L1814 624.436Z" fill="#658280"/>
<g opacity="0.52">
<path d="M359.89 562.696H355.285V567.301H359.89V562.696Z" fill="white"/>
<path d="M369.146 562.696H364.54V567.301H369.146V562.696Z" fill="white"/>
<path d="M359.89 573.517H355.285V578.123H359.89V573.517Z" fill="white"/>
<path d="M369.146 573.517H364.54V578.123H369.146V573.517Z" fill="white"/>
<path d="M359.89 583.98H355.285V588.586H359.89V583.98Z" fill="white"/>
<path d="M379.433 562.696H374.827V567.301H379.433V562.696Z" fill="white"/>
</g>
<path opacity="0.5" d="M695.549 424.349H692.407V441.739H695.549V424.349Z" fill="white"/>
<path opacity="0.5" d="M706.377 424.349H703.235V441.739H706.377V424.349Z" fill="white"/>
<path opacity="0.5" d="M717.204 424.349H714.062V441.739H717.204V424.349Z" fill="white"/>
<path opacity="0.5" d="M728.031 424.349H724.89V441.739H728.031V424.349Z" fill="white"/>
<path opacity="0.5" d="M738.858 424.349H735.717V441.739H738.858V424.349Z" fill="white"/>
<path opacity="0.5" d="M749.686 424.349H746.545V441.739H749.686V424.349Z" fill="white"/>
<path opacity="0.5" d="M760.513 424.349H757.372V441.739H760.513V424.349Z" fill="white"/>
<path opacity="0.5" d="M771.339 424.349H768.197V441.739H771.339V424.349Z" fill="white"/>
<path opacity="0.5" d="M782.166 424.349H779.024V441.739H782.166V424.349Z" fill="white"/>
<path opacity="0.5" d="M792.994 424.349H789.853V441.739H792.994V424.349Z" fill="white"/>
<path opacity="0.5" d="M803.822 424.349H800.681V441.739H803.822V424.349Z" fill="white"/>
<path opacity="0.5" d="M695.549 448.559H692.407V465.949H695.549V448.559Z" fill="white"/>
<path opacity="0.5" d="M706.377 448.559H703.235V465.949H706.377V448.559Z" fill="white"/>
<path opacity="0.5" d="M717.204 448.559H714.062V465.949H717.204V448.559Z" fill="white"/>
<path opacity="0.5" d="M728.031 448.559H724.89V465.949H728.031V448.559Z" fill="white"/>
<path opacity="0.5" d="M738.858 448.559H735.717V465.949H738.858V448.559Z" fill="white"/>
<path opacity="0.5" d="M749.686 448.559H746.545V465.949H749.686V448.559Z" fill="white"/>
<path opacity="0.5" d="M760.513 448.559H757.372V465.949H760.513V448.559Z" fill="white"/>
<path opacity="0.5" d="M771.339 448.559H768.197V465.949H771.339V448.559Z" fill="white"/>
<path opacity="0.5" d="M782.166 448.559H779.024V465.949H782.166V448.559Z" fill="white"/>
<path opacity="0.5" d="M792.994 448.559H789.853V465.949H792.994V448.559Z" fill="white"/>
<path opacity="0.5" d="M803.822 448.559H800.681V465.949H803.822V448.559Z" fill="white"/>
<path opacity="0.5" d="M695.549 472.769H692.407V490.159H695.549V472.769Z" fill="white"/>
<path opacity="0.5" d="M706.377 472.769H703.235V490.159H706.377V472.769Z" fill="white"/>
<path opacity="0.5" d="M717.204 472.769H714.062V490.159H717.204V472.769Z" fill="white"/>
<path opacity="0.5" d="M728.031 472.769H724.89V490.159H728.031V472.769Z" fill="white"/>
<path opacity="0.5" d="M738.858 472.769H735.717V490.159H738.858V472.769Z" fill="white"/>
<path opacity="0.5" d="M749.686 472.769H746.545V490.159H749.686V472.769Z" fill="white"/>
<path opacity="0.5" d="M760.513 472.769H757.372V490.159H760.513V472.769Z" fill="white"/>
<path opacity="0.5" d="M771.339 472.769H768.197V490.159H771.339V472.769Z" fill="white"/>
<path opacity="0.5" d="M782.166 472.769H779.024V490.159H782.166V472.769Z" fill="white"/>
<path opacity="0.5" d="M792.994 472.769H789.853V490.159H792.994V472.769Z" fill="white"/>
<path opacity="0.5" d="M803.822 472.769H800.681V490.159H803.822V472.769Z" fill="white"/>
<path opacity="0.5" d="M728.031 496.979H724.89V514.37H728.031V496.979Z" fill="white"/>
<path opacity="0.5" d="M738.858 496.979H735.717V514.37H738.858V496.979Z" fill="white"/>
<path opacity="0.5" d="M749.686 496.979H746.545V514.37H749.686V496.979Z" fill="white"/>
<path opacity="0.5" d="M760.513 496.979H757.372V514.37H760.513V496.979Z" fill="white"/>
<path opacity="0.5" d="M771.339 496.979H768.197V514.37H771.339V496.979Z" fill="white"/>
<path opacity="0.5" d="M782.166 496.979H779.024V514.37H782.166V496.979Z" fill="white"/>
<path opacity="0.5" d="M792.994 496.979H789.853V514.37H792.994V496.979Z" fill="white"/>
<path opacity="0.5" d="M803.822 496.979H800.681V514.37H803.822V496.979Z" fill="white"/>
<path opacity="0.5" d="M738.858 522.532H735.717V539.922H738.858V522.532Z" fill="white"/>
<path opacity="0.5" d="M749.686 522.532H746.545V539.922H749.686V522.532Z" fill="white"/>
<path opacity="0.5" d="M760.513 522.532H757.372V539.922H760.513V522.532Z" fill="white"/>
<path opacity="0.5" d="M771.339 522.532H768.197V539.922H771.339V522.532Z" fill="white"/>
<path opacity="0.5" d="M782.166 522.532H779.024V539.922H782.166V522.532Z" fill="white"/>
<path opacity="0.5" d="M792.994 522.532H789.853V539.922H792.994V522.532Z" fill="white"/>
<path opacity="0.5" d="M803.822 522.532H800.681V539.922H803.822V522.532Z" fill="white"/>
<path opacity="0.33" d="M909.146 467.511H901.724V486.337H909.146V467.511Z" fill="white"/>
<path opacity="0.33" d="M909.146 503.521H901.724V522.346H909.146V503.521Z" fill="white"/>
<path opacity="0.33" d="M909.146 539.526H901.724V558.352H909.146V539.526Z" fill="white"/>
<path opacity="0.33" d="M909.146 575.536H901.724V594.362H909.146V575.536Z" fill="white"/>
<path opacity="0.33" d="M909.146 609.485H901.724V628.311H909.146V609.485Z" fill="white"/>
<path opacity="0.33" d="M909.146 645.491H901.724V664.317H909.146V645.491Z" fill="white"/>
<path opacity="0.33" d="M940.969 467.511H933.547V486.337H940.969V467.511Z" fill="white"/>
<path opacity="0.33" d="M940.969 503.521H933.547V522.346H940.969V503.521Z" fill="white"/>
<path opacity="0.33" d="M940.969 539.526H933.547V558.352H940.969V539.526Z" fill="white"/>
<path opacity="0.33" d="M940.969 575.536H933.547V594.362H940.969V575.536Z" fill="white"/>
<path opacity="0.33" d="M940.969 609.485H933.547V628.311H940.969V609.485Z" fill="white"/>
<path opacity="0.33" d="M940.969 645.491H933.547V664.317H940.969V645.491Z" fill="white"/>
<path opacity="0.33" d="M972.793 467.511H965.37V486.337H972.793V467.511Z" fill="white"/>
<path opacity="0.33" d="M972.793 503.521H965.37V522.346H972.793V503.521Z" fill="white"/>
<path opacity="0.33" d="M972.793 539.526H965.37V558.352H972.793V539.526Z" fill="white"/>
<path opacity="0.33" d="M972.793 575.536H965.37V594.362H972.793V575.536Z" fill="white"/>
<path opacity="0.33" d="M972.793 609.485H965.37V628.311H972.793V609.485Z" fill="white"/>
<path opacity="0.33" d="M972.793 645.491H965.37V664.317H972.793V645.491Z" fill="white"/>
<path opacity="0.33" d="M1004.62 467.511H997.193V486.337H1004.62V467.511Z" fill="white"/>
<path opacity="0.33" d="M1004.62 503.521H997.193V522.346H1004.62V503.521Z" fill="white"/>
<path opacity="0.33" d="M1004.62 539.526H997.193V558.352H1004.62V539.526Z" fill="white"/>
<path opacity="0.33" d="M1004.62 575.536H997.193V594.362H1004.62V575.536Z" fill="white"/>
<path opacity="0.33" d="M1004.62 609.485H997.193V628.311H1004.62V609.485Z" fill="white"/>
<path opacity="0.33" d="M1004.62 645.491H997.193V664.317H1004.62V645.491Z" fill="white"/>
<path opacity="0.5" d="M788.344 204.984H782.169V221.459H788.344V204.984Z" fill="white"/>
<path opacity="0.5" d="M803.583 204.984H797.407V221.459H803.583V204.984Z" fill="white"/>
<path opacity="0.5" d="M818.819 204.984H812.644V221.459H818.819V204.984Z" fill="white"/>
<path opacity="0.5" d="M834.057 204.984H827.882V221.459H834.057V204.984Z" fill="white"/>
<path opacity="0.5" d="M788.344 232.423H782.169V248.898H788.344V232.423Z" fill="white"/>
<path opacity="0.5" d="M803.583 232.423H797.407V248.898H803.583V232.423Z" fill="white"/>
<path opacity="0.5" d="M818.819 232.423H812.644V248.898H818.819V232.423Z" fill="white"/>
<path opacity="0.5" d="M834.057 232.423H827.882V248.898H834.057V232.423Z" fill="white"/>
<path opacity="0.5" d="M788.344 259.861H782.169V276.337H788.344V259.861Z" fill="white"/>
<path opacity="0.5" d="M803.583 259.861H797.407V276.337H803.583V259.861Z" fill="white"/>
<path opacity="0.5" d="M851.344 204.984H845.169V221.459H851.344V204.984Z" fill="white"/>
<path opacity="0.4" d="M374.827 371.892H370.9V386.995H374.827V371.892Z" fill="white"/>
<path opacity="0.4" d="M388.686 371.892H384.76V386.995H388.686V371.892Z" fill="white"/>
<path opacity="0.4" d="M404.895 371.892H400.969V386.995H404.895V371.892Z" fill="white"/>
<path opacity="0.4" d="M418.753 371.892H414.827V386.995H418.753V371.892Z" fill="white"/>
<path opacity="0.4" d="M344.039 371.892H340.113V386.995H344.039V371.892Z" fill="white"/>
<path opacity="0.4" d="M357.897 371.892H353.971V386.995H357.897V371.892Z" fill="white"/>
<path opacity="0.4" d="M374.827 398.118H370.9V413.221H374.827V398.118Z" fill="white"/>
<path opacity="0.4" d="M388.686 398.118H384.76V413.221H388.686V398.118Z" fill="white"/>
<path opacity="0.4" d="M404.895 398.118H400.969V413.221H404.895V398.118Z" fill="white"/>
<path opacity="0.4" d="M418.753 398.118H414.827V413.221H418.753V398.118Z" fill="white"/>
<path opacity="0.4" d="M344.039 398.118H340.113V413.221H344.039V398.118Z" fill="white"/>
<path opacity="0.4" d="M357.897 398.118H353.971V413.221H357.897V398.118Z" fill="white"/>
<path opacity="0.4" d="M374.827 424.343H370.9V439.445H374.827V424.343Z" fill="white"/>
<path opacity="0.4" d="M388.686 424.343H384.76V439.445H388.686V424.343Z" fill="white"/>
<path opacity="0.4" d="M404.895 424.343H400.969V439.445H404.895V424.343Z" fill="white"/>
<path opacity="0.4" d="M418.753 424.343H414.827V439.445H418.753V424.343Z" fill="white"/>
<path opacity="0.4" d="M344.039 424.343H340.113V439.445H344.039V424.343Z" fill="white"/>
<path opacity="0.4" d="M357.897 424.343H353.971V439.445H357.897V424.343Z" fill="white"/>
<path opacity="0.5" d="M1109.9 487.637H1103.82V511.058H1109.9V487.637Z" fill="white"/>
<path opacity="0.5" d="M1128.52 487.637H1122.44V511.058H1128.52V487.637Z" fill="white"/>
<path opacity="0.5" d="M1146.05 487.637H1139.96V511.058H1146.05V487.637Z" fill="white"/>
<path opacity="0.33" d="M1527.73 492.504H1523.11V505.676H1527.73V492.504Z" fill="white"/>
<path opacity="0.33" d="M1542.2 492.504H1537.58V505.676H1542.2V492.504Z" fill="white"/>
<path opacity="0.33" d="M1527.73 492.504H1523.11V505.676H1527.73V492.504Z" fill="white"/>
<path opacity="0.33" d="M1542.2 492.504H1537.58V505.676H1542.2V492.504Z" fill="white"/>
<path opacity="0.33" d="M1555.89 492.504H1551.27V505.676H1555.89V492.504Z" fill="white"/>
<path opacity="0.33" d="M1570.36 492.504H1565.75V505.676H1570.36V492.504Z" fill="white"/>
<path opacity="0.33" d="M1527.73 516.123H1523.11V529.295H1527.73V516.123Z" fill="white"/>
<path opacity="0.33" d="M1542.2 516.123H1537.58V529.295H1542.2V516.123Z" fill="white"/>
<path opacity="0.33" d="M1527.73 516.123H1523.11V529.295H1527.73V516.123Z" fill="white"/>
<path opacity="0.33" d="M1542.2 516.123H1537.58V529.295H1542.2V516.123Z" fill="white"/>
<path opacity="0.33" d="M1555.89 516.123H1551.27V529.295H1555.89V516.123Z" fill="white"/>
<path opacity="0.33" d="M1570.36 516.123H1565.75V529.295H1570.36V516.123Z" fill="white"/>
<path opacity="0.33" d="M1527.73 541.264H1523.11V554.436H1527.73V541.264Z" fill="white"/>
<path opacity="0.33" d="M1542.2 541.264H1537.58V554.436H1542.2V541.264Z" fill="white"/>
<path opacity="0.33" d="M1527.73 541.264H1523.11V554.436H1527.73V541.264Z" fill="white"/>
<path opacity="0.33" d="M1542.2 541.264H1537.58V554.436H1542.2V541.264Z" fill="white"/>
<path opacity="0.33" d="M1555.89 541.264H1551.27V554.436H1555.89V541.264Z" fill="white"/>
<path opacity="0.33" d="M1570.36 541.264H1565.75V554.436H1570.36V541.264Z" fill="white"/>
<path opacity="0.33" d="M1586.19 492.504H1581.57V505.676H1586.19V492.504Z" fill="white"/>
<path opacity="0.33" d="M1586.19 516.123H1581.57V529.295H1586.19V516.123Z" fill="white"/>
<path opacity="0.33" d="M1600.67 492.504H1596.05V505.676H1600.67V492.504Z" fill="white"/>
<path opacity="0.33" d="M1167.34 453.416H1162.38V473.951H1167.34V453.416Z" fill="white"/>
<path opacity="0.33" d="M1192.03 453.416H1187.07V473.951H1192.03V453.416Z" fill="white"/>
<path opacity="0.33" d="M1216.72 453.416H1211.76V473.951H1216.72V453.416Z" fill="white"/>
<path opacity="0.33" d="M1241.41 453.416H1236.45V473.951H1241.41V453.416Z" fill="white"/>
<path opacity="0.33" d="M1167.34 495.681H1162.38V516.217H1167.34V495.681Z" fill="white"/>
<path opacity="0.33" d="M1192.03 495.681H1187.07V516.217H1192.03V495.681Z" fill="white"/>
<path opacity="0.33" d="M1216.72 495.681H1211.76V516.217H1216.72V495.681Z" fill="white"/>
<path opacity="0.33" d="M1241.41 495.681H1236.45V516.217H1241.41V495.681Z" fill="white"/>
<path opacity="0.33" d="M1167.34 538.999H1162.38V559.534H1167.34V538.999Z" fill="white"/>
<path opacity="0.33" d="M1192.03 538.999H1187.07V559.534H1192.03V538.999Z" fill="white"/>
<path opacity="0.33" d="M1216.72 538.999H1211.76V559.534H1216.72V538.999Z" fill="white"/>
<path opacity="0.33" d="M1241.41 538.999H1236.45V559.534H1241.41V538.999Z" fill="white"/>
<path opacity="0.33" d="M1167.34 582.314H1162.38V602.85H1167.34V582.314Z" fill="white"/>
<path opacity="0.33" d="M1192.03 582.314H1187.07V602.85H1192.03V582.314Z" fill="white"/>
<path opacity="0.33" d="M1216.72 582.314H1211.76V602.85H1216.72V582.314Z" fill="white"/>
<path opacity="0.33" d="M1241.41 582.314H1236.45V602.85H1241.41V582.314Z" fill="white"/>
<path opacity="0.33" d="M1167.34 621.66H1162.38V642.196H1167.34V621.66Z" fill="white"/>
<path opacity="0.33" d="M1192.03 621.66H1187.07V642.196H1192.03V621.66Z" fill="white"/>
<path opacity="0.33" d="M1216.72 621.66H1211.76V642.196H1216.72V621.66Z" fill="white"/>
<path opacity="0.33" d="M1167.34 665.545H1162.38V686.081H1167.34V665.545Z" fill="white"/>
<path opacity="0.33" d="M1192.03 665.545H1187.07V686.081H1192.03V665.545Z" fill="white"/>
<path opacity="0.33" d="M1216.72 665.545H1211.76V686.081H1216.72V665.545Z" fill="white"/>
<path opacity="0.33" d="M1241.41 621.66H1236.45V642.196H1241.41V621.66Z" fill="white"/>
<path opacity="0.33" d="M1728.7 561.984H1723.62V573.771H1728.7V561.984Z" fill="white"/>
<path opacity="0.33" d="M1728.7 581.011H1723.62V592.798H1728.7V581.011Z" fill="white"/>
<path opacity="0.33" d="M1741.71 561.984H1736.64V573.771H1741.71V561.984Z" fill="white"/>
</g>
</g>
<defs>
<clipPath id="clip0_1_12615">
<rect width="2028" height="1419.6" fill="white" transform="translate(-54 -169.8)"/>
</clipPath>
</defs>
</svg>
